G04 #@! TF.GenerationSoftware,KiCad,Pcbnew,(5.0.0)*
G04 #@! TF.CreationDate,2018-12-11T22:03:55+01:00*
G04 #@! TF.ProjectId,1206_led_satellite_board-rev_1.0,313230365F6C65645F736174656C6C69,rev?*
G04 #@! TF.SameCoordinates,Original*
G04 #@! TF.FileFunction,Soldermask,Bot*
G04 #@! TF.FilePolarity,Negative*
%FSLAX46Y46*%
G04 Gerber Fmt 4.6, Leading zero omitted, Abs format (unit mm)*
G04 Created by KiCad (PCBNEW (5.0.0)) date 12/11/18 22:03:55*
%MOMM*%
%LPD*%
G01*
G04 APERTURE LIST*
%ADD10C,0.100000*%
%ADD11C,1.650000*%
%ADD12C,2.150000*%
%ADD13R,2.150000X2.150000*%
%ADD14R,1.300000X2.100000*%
%ADD15C,6.000000*%
G04 APERTURE END LIST*
D10*
G04 #@! TO.C,D1*
G36*
X40305025Y-16438838D02*
X40337059Y-16443590D01*
X40368473Y-16451459D01*
X40398965Y-16462369D01*
X40428240Y-16476215D01*
X40456017Y-16492864D01*
X40482029Y-16512156D01*
X40506024Y-16533904D01*
X40527772Y-16557899D01*
X40547064Y-16583911D01*
X40563713Y-16611688D01*
X40577559Y-16640963D01*
X40588469Y-16671455D01*
X40596338Y-16702869D01*
X40601090Y-16734903D01*
X40602679Y-16767249D01*
X40602679Y-18257249D01*
X40601090Y-18289595D01*
X40596338Y-18321629D01*
X40588469Y-18353043D01*
X40577559Y-18383535D01*
X40563713Y-18412810D01*
X40547064Y-18440587D01*
X40527772Y-18466599D01*
X40506024Y-18490594D01*
X40482029Y-18512342D01*
X40456017Y-18531634D01*
X40428240Y-18548283D01*
X40398965Y-18562129D01*
X40368473Y-18573039D01*
X40337059Y-18580908D01*
X40305025Y-18585660D01*
X40272679Y-18587249D01*
X39282679Y-18587249D01*
X39250333Y-18585660D01*
X39218299Y-18580908D01*
X39186885Y-18573039D01*
X39156393Y-18562129D01*
X39127118Y-18548283D01*
X39099341Y-18531634D01*
X39073329Y-18512342D01*
X39049334Y-18490594D01*
X39027586Y-18466599D01*
X39008294Y-18440587D01*
X38991645Y-18412810D01*
X38977799Y-18383535D01*
X38966889Y-18353043D01*
X38959020Y-18321629D01*
X38954268Y-18289595D01*
X38952679Y-18257249D01*
X38952679Y-16767249D01*
X38954268Y-16734903D01*
X38959020Y-16702869D01*
X38966889Y-16671455D01*
X38977799Y-16640963D01*
X38991645Y-16611688D01*
X39008294Y-16583911D01*
X39027586Y-16557899D01*
X39049334Y-16533904D01*
X39073329Y-16512156D01*
X39099341Y-16492864D01*
X39127118Y-16476215D01*
X39156393Y-16462369D01*
X39186885Y-16451459D01*
X39218299Y-16443590D01*
X39250333Y-16438838D01*
X39282679Y-16437249D01*
X40272679Y-16437249D01*
X40305025Y-16438838D01*
X40305025Y-16438838D01*
G37*
D11*
X39777679Y-17512249D03*
D10*
G36*
X43105025Y-16438838D02*
X43137059Y-16443590D01*
X43168473Y-16451459D01*
X43198965Y-16462369D01*
X43228240Y-16476215D01*
X43256017Y-16492864D01*
X43282029Y-16512156D01*
X43306024Y-16533904D01*
X43327772Y-16557899D01*
X43347064Y-16583911D01*
X43363713Y-16611688D01*
X43377559Y-16640963D01*
X43388469Y-16671455D01*
X43396338Y-16702869D01*
X43401090Y-16734903D01*
X43402679Y-16767249D01*
X43402679Y-18257249D01*
X43401090Y-18289595D01*
X43396338Y-18321629D01*
X43388469Y-18353043D01*
X43377559Y-18383535D01*
X43363713Y-18412810D01*
X43347064Y-18440587D01*
X43327772Y-18466599D01*
X43306024Y-18490594D01*
X43282029Y-18512342D01*
X43256017Y-18531634D01*
X43228240Y-18548283D01*
X43198965Y-18562129D01*
X43168473Y-18573039D01*
X43137059Y-18580908D01*
X43105025Y-18585660D01*
X43072679Y-18587249D01*
X42082679Y-18587249D01*
X42050333Y-18585660D01*
X42018299Y-18580908D01*
X41986885Y-18573039D01*
X41956393Y-18562129D01*
X41927118Y-18548283D01*
X41899341Y-18531634D01*
X41873329Y-18512342D01*
X41849334Y-18490594D01*
X41827586Y-18466599D01*
X41808294Y-18440587D01*
X41791645Y-18412810D01*
X41777799Y-18383535D01*
X41766889Y-18353043D01*
X41759020Y-18321629D01*
X41754268Y-18289595D01*
X41752679Y-18257249D01*
X41752679Y-16767249D01*
X41754268Y-16734903D01*
X41759020Y-16702869D01*
X41766889Y-16671455D01*
X41777799Y-16640963D01*
X41791645Y-16611688D01*
X41808294Y-16583911D01*
X41827586Y-16557899D01*
X41849334Y-16533904D01*
X41873329Y-16512156D01*
X41899341Y-16492864D01*
X41927118Y-16476215D01*
X41956393Y-16462369D01*
X41986885Y-16451459D01*
X42018299Y-16443590D01*
X42050333Y-16438838D01*
X42082679Y-16437249D01*
X43072679Y-16437249D01*
X43105025Y-16438838D01*
X43105025Y-16438838D01*
G37*
D11*
X42577679Y-17512249D03*
G04 #@! TD*
D10*
G04 #@! TO.C,D2*
G36*
X43105025Y-18828838D02*
X43137059Y-18833590D01*
X43168473Y-18841459D01*
X43198965Y-18852369D01*
X43228240Y-18866215D01*
X43256017Y-18882864D01*
X43282029Y-18902156D01*
X43306024Y-18923904D01*
X43327772Y-18947899D01*
X43347064Y-18973911D01*
X43363713Y-19001688D01*
X43377559Y-19030963D01*
X43388469Y-19061455D01*
X43396338Y-19092869D01*
X43401090Y-19124903D01*
X43402679Y-19157249D01*
X43402679Y-20647249D01*
X43401090Y-20679595D01*
X43396338Y-20711629D01*
X43388469Y-20743043D01*
X43377559Y-20773535D01*
X43363713Y-20802810D01*
X43347064Y-20830587D01*
X43327772Y-20856599D01*
X43306024Y-20880594D01*
X43282029Y-20902342D01*
X43256017Y-20921634D01*
X43228240Y-20938283D01*
X43198965Y-20952129D01*
X43168473Y-20963039D01*
X43137059Y-20970908D01*
X43105025Y-20975660D01*
X43072679Y-20977249D01*
X42082679Y-20977249D01*
X42050333Y-20975660D01*
X42018299Y-20970908D01*
X41986885Y-20963039D01*
X41956393Y-20952129D01*
X41927118Y-20938283D01*
X41899341Y-20921634D01*
X41873329Y-20902342D01*
X41849334Y-20880594D01*
X41827586Y-20856599D01*
X41808294Y-20830587D01*
X41791645Y-20802810D01*
X41777799Y-20773535D01*
X41766889Y-20743043D01*
X41759020Y-20711629D01*
X41754268Y-20679595D01*
X41752679Y-20647249D01*
X41752679Y-19157249D01*
X41754268Y-19124903D01*
X41759020Y-19092869D01*
X41766889Y-19061455D01*
X41777799Y-19030963D01*
X41791645Y-19001688D01*
X41808294Y-18973911D01*
X41827586Y-18947899D01*
X41849334Y-18923904D01*
X41873329Y-18902156D01*
X41899341Y-18882864D01*
X41927118Y-18866215D01*
X41956393Y-18852369D01*
X41986885Y-18841459D01*
X42018299Y-18833590D01*
X42050333Y-18828838D01*
X42082679Y-18827249D01*
X43072679Y-18827249D01*
X43105025Y-18828838D01*
X43105025Y-18828838D01*
G37*
D11*
X42577679Y-19902249D03*
D10*
G36*
X40305025Y-18828838D02*
X40337059Y-18833590D01*
X40368473Y-18841459D01*
X40398965Y-18852369D01*
X40428240Y-18866215D01*
X40456017Y-18882864D01*
X40482029Y-18902156D01*
X40506024Y-18923904D01*
X40527772Y-18947899D01*
X40547064Y-18973911D01*
X40563713Y-19001688D01*
X40577559Y-19030963D01*
X40588469Y-19061455D01*
X40596338Y-19092869D01*
X40601090Y-19124903D01*
X40602679Y-19157249D01*
X40602679Y-20647249D01*
X40601090Y-20679595D01*
X40596338Y-20711629D01*
X40588469Y-20743043D01*
X40577559Y-20773535D01*
X40563713Y-20802810D01*
X40547064Y-20830587D01*
X40527772Y-20856599D01*
X40506024Y-20880594D01*
X40482029Y-20902342D01*
X40456017Y-20921634D01*
X40428240Y-20938283D01*
X40398965Y-20952129D01*
X40368473Y-20963039D01*
X40337059Y-20970908D01*
X40305025Y-20975660D01*
X40272679Y-20977249D01*
X39282679Y-20977249D01*
X39250333Y-20975660D01*
X39218299Y-20970908D01*
X39186885Y-20963039D01*
X39156393Y-20952129D01*
X39127118Y-20938283D01*
X39099341Y-20921634D01*
X39073329Y-20902342D01*
X39049334Y-20880594D01*
X39027586Y-20856599D01*
X39008294Y-20830587D01*
X38991645Y-20802810D01*
X38977799Y-20773535D01*
X38966889Y-20743043D01*
X38959020Y-20711629D01*
X38954268Y-20679595D01*
X38952679Y-20647249D01*
X38952679Y-19157249D01*
X38954268Y-19124903D01*
X38959020Y-19092869D01*
X38966889Y-19061455D01*
X38977799Y-19030963D01*
X38991645Y-19001688D01*
X39008294Y-18973911D01*
X39027586Y-18947899D01*
X39049334Y-18923904D01*
X39073329Y-18902156D01*
X39099341Y-18882864D01*
X39127118Y-18866215D01*
X39156393Y-18852369D01*
X39186885Y-18841459D01*
X39218299Y-18833590D01*
X39250333Y-18828838D01*
X39282679Y-18827249D01*
X40272679Y-18827249D01*
X40305025Y-18828838D01*
X40305025Y-18828838D01*
G37*
D11*
X39777679Y-19902249D03*
G04 #@! TD*
D10*
G04 #@! TO.C,D3*
G36*
X40305025Y-21218838D02*
X40337059Y-21223590D01*
X40368473Y-21231459D01*
X40398965Y-21242369D01*
X40428240Y-21256215D01*
X40456017Y-21272864D01*
X40482029Y-21292156D01*
X40506024Y-21313904D01*
X40527772Y-21337899D01*
X40547064Y-21363911D01*
X40563713Y-21391688D01*
X40577559Y-21420963D01*
X40588469Y-21451455D01*
X40596338Y-21482869D01*
X40601090Y-21514903D01*
X40602679Y-21547249D01*
X40602679Y-23037249D01*
X40601090Y-23069595D01*
X40596338Y-23101629D01*
X40588469Y-23133043D01*
X40577559Y-23163535D01*
X40563713Y-23192810D01*
X40547064Y-23220587D01*
X40527772Y-23246599D01*
X40506024Y-23270594D01*
X40482029Y-23292342D01*
X40456017Y-23311634D01*
X40428240Y-23328283D01*
X40398965Y-23342129D01*
X40368473Y-23353039D01*
X40337059Y-23360908D01*
X40305025Y-23365660D01*
X40272679Y-23367249D01*
X39282679Y-23367249D01*
X39250333Y-23365660D01*
X39218299Y-23360908D01*
X39186885Y-23353039D01*
X39156393Y-23342129D01*
X39127118Y-23328283D01*
X39099341Y-23311634D01*
X39073329Y-23292342D01*
X39049334Y-23270594D01*
X39027586Y-23246599D01*
X39008294Y-23220587D01*
X38991645Y-23192810D01*
X38977799Y-23163535D01*
X38966889Y-23133043D01*
X38959020Y-23101629D01*
X38954268Y-23069595D01*
X38952679Y-23037249D01*
X38952679Y-21547249D01*
X38954268Y-21514903D01*
X38959020Y-21482869D01*
X38966889Y-21451455D01*
X38977799Y-21420963D01*
X38991645Y-21391688D01*
X39008294Y-21363911D01*
X39027586Y-21337899D01*
X39049334Y-21313904D01*
X39073329Y-21292156D01*
X39099341Y-21272864D01*
X39127118Y-21256215D01*
X39156393Y-21242369D01*
X39186885Y-21231459D01*
X39218299Y-21223590D01*
X39250333Y-21218838D01*
X39282679Y-21217249D01*
X40272679Y-21217249D01*
X40305025Y-21218838D01*
X40305025Y-21218838D01*
G37*
D11*
X39777679Y-22292249D03*
D10*
G36*
X43105025Y-21218838D02*
X43137059Y-21223590D01*
X43168473Y-21231459D01*
X43198965Y-21242369D01*
X43228240Y-21256215D01*
X43256017Y-21272864D01*
X43282029Y-21292156D01*
X43306024Y-21313904D01*
X43327772Y-21337899D01*
X43347064Y-21363911D01*
X43363713Y-21391688D01*
X43377559Y-21420963D01*
X43388469Y-21451455D01*
X43396338Y-21482869D01*
X43401090Y-21514903D01*
X43402679Y-21547249D01*
X43402679Y-23037249D01*
X43401090Y-23069595D01*
X43396338Y-23101629D01*
X43388469Y-23133043D01*
X43377559Y-23163535D01*
X43363713Y-23192810D01*
X43347064Y-23220587D01*
X43327772Y-23246599D01*
X43306024Y-23270594D01*
X43282029Y-23292342D01*
X43256017Y-23311634D01*
X43228240Y-23328283D01*
X43198965Y-23342129D01*
X43168473Y-23353039D01*
X43137059Y-23360908D01*
X43105025Y-23365660D01*
X43072679Y-23367249D01*
X42082679Y-23367249D01*
X42050333Y-23365660D01*
X42018299Y-23360908D01*
X41986885Y-23353039D01*
X41956393Y-23342129D01*
X41927118Y-23328283D01*
X41899341Y-23311634D01*
X41873329Y-23292342D01*
X41849334Y-23270594D01*
X41827586Y-23246599D01*
X41808294Y-23220587D01*
X41791645Y-23192810D01*
X41777799Y-23163535D01*
X41766889Y-23133043D01*
X41759020Y-23101629D01*
X41754268Y-23069595D01*
X41752679Y-23037249D01*
X41752679Y-21547249D01*
X41754268Y-21514903D01*
X41759020Y-21482869D01*
X41766889Y-21451455D01*
X41777799Y-21420963D01*
X41791645Y-21391688D01*
X41808294Y-21363911D01*
X41827586Y-21337899D01*
X41849334Y-21313904D01*
X41873329Y-21292156D01*
X41899341Y-21272864D01*
X41927118Y-21256215D01*
X41956393Y-21242369D01*
X41986885Y-21231459D01*
X42018299Y-21223590D01*
X42050333Y-21218838D01*
X42082679Y-21217249D01*
X43072679Y-21217249D01*
X43105025Y-21218838D01*
X43105025Y-21218838D01*
G37*
D11*
X42577679Y-22292249D03*
G04 #@! TD*
D12*
G04 #@! TO.C,J1*
X27940000Y-21250000D03*
D13*
X27940000Y-18750000D03*
G04 #@! TD*
D14*
G04 #@! TO.C,R1*
X34110000Y-22225000D03*
X37010000Y-22225000D03*
G04 #@! TD*
D15*
G04 #@! TO.C,REF\002A\002A*
X20000000Y-20000000D03*
G04 #@! TD*
M02*
