G04 #@! TF.GenerationSoftware,KiCad,Pcbnew,(5.0.0)*
G04 #@! TF.CreationDate,2018-12-11T22:03:55+01:00*
G04 #@! TF.ProjectId,1206_led_satellite_board-rev_1.0,313230365F6C65645F736174656C6C69,rev?*
G04 #@! TF.SameCoordinates,Original*
G04 #@! TF.FileFunction,Copper,L1,Top,Signal*
G04 #@! TF.FilePolarity,Positive*
%FSLAX46Y46*%
G04 Gerber Fmt 4.6, Leading zero omitted, Abs format (unit mm)*
G04 Created by KiCad (PCBNEW (5.0.0)) date 12/11/18 22:03:55*
%MOMM*%
%LPD*%
G01*
G04 APERTURE LIST*
G04 #@! TA.AperFunction,ComponentPad*
%ADD10C,1.750000*%
G04 #@! TD*
G04 #@! TA.AperFunction,ComponentPad*
%ADD11R,1.750000X1.750000*%
G04 #@! TD*
G04 #@! TA.AperFunction,ComponentPad*
%ADD12C,5.600000*%
G04 #@! TD*
G04 #@! TA.AperFunction,ViaPad*
%ADD13C,0.800000*%
G04 #@! TD*
G04 #@! TA.AperFunction,Conductor*
%ADD14C,0.500000*%
G04 #@! TD*
G04 #@! TA.AperFunction,NonConductor*
%ADD15C,0.254000*%
G04 #@! TD*
G04 APERTURE END LIST*
D10*
G04 #@! TO.P,J1,2*
G04 #@! TO.N,Net-(J1-Pad2)*
X27940000Y-21250000D03*
D11*
G04 #@! TO.P,J1,1*
G04 #@! TO.N,Net-(D1-Pad2)*
X27940000Y-18750000D03*
G04 #@! TD*
D12*
G04 #@! TO.P,REF\002A\002A,1*
G04 #@! TO.N,N/C*
X20000000Y-20000000D03*
G04 #@! TD*
D13*
G04 #@! TO.N,Net-(J1-Pad2)*
X32500000Y-22225000D03*
G04 #@! TD*
D14*
G04 #@! TO.N,Net-(J1-Pad2)*
X28915000Y-22225000D02*
X27940000Y-21250000D01*
X32500000Y-22225000D02*
X28915000Y-22225000D01*
G04 #@! TD*
D15*
G36*
X44290001Y-24290000D02*
X15710000Y-24290000D01*
X15710000Y-20672956D01*
X16562965Y-20672956D01*
X16565000Y-20677911D01*
X16565000Y-20683264D01*
X16824391Y-21309490D01*
X17082122Y-21937027D01*
X17087918Y-21945701D01*
X17087947Y-21945771D01*
X17088001Y-21945825D01*
X17093797Y-21954499D01*
X17103428Y-21961252D01*
X18038748Y-22896572D01*
X18045501Y-22906203D01*
X18050444Y-22908268D01*
X18054229Y-22912053D01*
X18680446Y-23171440D01*
X19306434Y-23432936D01*
X19311792Y-23432952D01*
X19316736Y-23435000D01*
X19994529Y-23435000D01*
X20672956Y-23437035D01*
X20677911Y-23435000D01*
X20683264Y-23435000D01*
X21309490Y-23175609D01*
X21937027Y-22917878D01*
X21945701Y-22912082D01*
X21945771Y-22912053D01*
X21945825Y-22911999D01*
X21954499Y-22906203D01*
X21961252Y-22896572D01*
X22896572Y-21961252D01*
X22906203Y-21954499D01*
X22908268Y-21949556D01*
X22912053Y-21945771D01*
X23171440Y-21319554D01*
X23432936Y-20693566D01*
X23432952Y-20688208D01*
X23435000Y-20683264D01*
X23435000Y-20005471D01*
X23437035Y-19327044D01*
X23435000Y-19322089D01*
X23435000Y-19316736D01*
X23175609Y-18690510D01*
X22917878Y-18062973D01*
X22912082Y-18054299D01*
X22912053Y-18054229D01*
X22911999Y-18054175D01*
X22906203Y-18045501D01*
X22896572Y-18038748D01*
X22732824Y-17875000D01*
X26417560Y-17875000D01*
X26417560Y-19625000D01*
X26466843Y-19872765D01*
X26607191Y-20082809D01*
X26817235Y-20223157D01*
X26829034Y-20225504D01*
X26659884Y-20394654D01*
X26430000Y-20949642D01*
X26430000Y-21550358D01*
X26659884Y-22105346D01*
X27084654Y-22530116D01*
X27639642Y-22760000D01*
X28198421Y-22760000D01*
X28227577Y-22789156D01*
X28276951Y-22863049D01*
X28350844Y-22912423D01*
X28350845Y-22912424D01*
X28461880Y-22986615D01*
X28569690Y-23058652D01*
X28827835Y-23110000D01*
X28827839Y-23110000D01*
X28914999Y-23127337D01*
X29002159Y-23110000D01*
X31931993Y-23110000D01*
X32294126Y-23260000D01*
X32705874Y-23260000D01*
X33086280Y-23102431D01*
X33377431Y-22811280D01*
X33535000Y-22430874D01*
X33535000Y-22019126D01*
X33377431Y-21638720D01*
X33086280Y-21347569D01*
X32705874Y-21190000D01*
X32294126Y-21190000D01*
X31931993Y-21340000D01*
X29450000Y-21340000D01*
X29450000Y-20949642D01*
X29220116Y-20394654D01*
X29050966Y-20225504D01*
X29062765Y-20223157D01*
X29272809Y-20082809D01*
X29413157Y-19872765D01*
X29462440Y-19625000D01*
X29462440Y-17875000D01*
X29413157Y-17627235D01*
X29272809Y-17417191D01*
X29062765Y-17276843D01*
X28815000Y-17227560D01*
X27065000Y-17227560D01*
X26817235Y-17276843D01*
X26607191Y-17417191D01*
X26466843Y-17627235D01*
X26417560Y-17875000D01*
X22732824Y-17875000D01*
X21961252Y-17103428D01*
X21954499Y-17093797D01*
X21949556Y-17091732D01*
X21945771Y-17087947D01*
X21319554Y-16828560D01*
X20693566Y-16567064D01*
X20688208Y-16567048D01*
X20683264Y-16565000D01*
X20005471Y-16565000D01*
X19327044Y-16562965D01*
X19322089Y-16565000D01*
X19316736Y-16565000D01*
X18690510Y-16824391D01*
X18062973Y-17082122D01*
X18054299Y-17087918D01*
X18054229Y-17087947D01*
X18054175Y-17088001D01*
X18045501Y-17093797D01*
X18038748Y-17103428D01*
X17103428Y-18038748D01*
X17093797Y-18045501D01*
X17091732Y-18050444D01*
X17087947Y-18054229D01*
X16828560Y-18680446D01*
X16567064Y-19306434D01*
X16567048Y-19311792D01*
X16565000Y-19316736D01*
X16565000Y-19994529D01*
X16562965Y-20672956D01*
X15710000Y-20672956D01*
X15710000Y-15710000D01*
X44290000Y-15710000D01*
X44290001Y-24290000D01*
X44290001Y-24290000D01*
G37*
X44290001Y-24290000D02*
X15710000Y-24290000D01*
X15710000Y-20672956D01*
X16562965Y-20672956D01*
X16565000Y-20677911D01*
X16565000Y-20683264D01*
X16824391Y-21309490D01*
X17082122Y-21937027D01*
X17087918Y-21945701D01*
X17087947Y-21945771D01*
X17088001Y-21945825D01*
X17093797Y-21954499D01*
X17103428Y-21961252D01*
X18038748Y-22896572D01*
X18045501Y-22906203D01*
X18050444Y-22908268D01*
X18054229Y-22912053D01*
X18680446Y-23171440D01*
X19306434Y-23432936D01*
X19311792Y-23432952D01*
X19316736Y-23435000D01*
X19994529Y-23435000D01*
X20672956Y-23437035D01*
X20677911Y-23435000D01*
X20683264Y-23435000D01*
X21309490Y-23175609D01*
X21937027Y-22917878D01*
X21945701Y-22912082D01*
X21945771Y-22912053D01*
X21945825Y-22911999D01*
X21954499Y-22906203D01*
X21961252Y-22896572D01*
X22896572Y-21961252D01*
X22906203Y-21954499D01*
X22908268Y-21949556D01*
X22912053Y-21945771D01*
X23171440Y-21319554D01*
X23432936Y-20693566D01*
X23432952Y-20688208D01*
X23435000Y-20683264D01*
X23435000Y-20005471D01*
X23437035Y-19327044D01*
X23435000Y-19322089D01*
X23435000Y-19316736D01*
X23175609Y-18690510D01*
X22917878Y-18062973D01*
X22912082Y-18054299D01*
X22912053Y-18054229D01*
X22911999Y-18054175D01*
X22906203Y-18045501D01*
X22896572Y-18038748D01*
X22732824Y-17875000D01*
X26417560Y-17875000D01*
X26417560Y-19625000D01*
X26466843Y-19872765D01*
X26607191Y-20082809D01*
X26817235Y-20223157D01*
X26829034Y-20225504D01*
X26659884Y-20394654D01*
X26430000Y-20949642D01*
X26430000Y-21550358D01*
X26659884Y-22105346D01*
X27084654Y-22530116D01*
X27639642Y-22760000D01*
X28198421Y-22760000D01*
X28227577Y-22789156D01*
X28276951Y-22863049D01*
X28350844Y-22912423D01*
X28350845Y-22912424D01*
X28461880Y-22986615D01*
X28569690Y-23058652D01*
X28827835Y-23110000D01*
X28827839Y-23110000D01*
X28914999Y-23127337D01*
X29002159Y-23110000D01*
X31931993Y-23110000D01*
X32294126Y-23260000D01*
X32705874Y-23260000D01*
X33086280Y-23102431D01*
X33377431Y-22811280D01*
X33535000Y-22430874D01*
X33535000Y-22019126D01*
X33377431Y-21638720D01*
X33086280Y-21347569D01*
X32705874Y-21190000D01*
X32294126Y-21190000D01*
X31931993Y-21340000D01*
X29450000Y-21340000D01*
X29450000Y-20949642D01*
X29220116Y-20394654D01*
X29050966Y-20225504D01*
X29062765Y-20223157D01*
X29272809Y-20082809D01*
X29413157Y-19872765D01*
X29462440Y-19625000D01*
X29462440Y-17875000D01*
X29413157Y-17627235D01*
X29272809Y-17417191D01*
X29062765Y-17276843D01*
X28815000Y-17227560D01*
X27065000Y-17227560D01*
X26817235Y-17276843D01*
X26607191Y-17417191D01*
X26466843Y-17627235D01*
X26417560Y-17875000D01*
X22732824Y-17875000D01*
X21961252Y-17103428D01*
X21954499Y-17093797D01*
X21949556Y-17091732D01*
X21945771Y-17087947D01*
X21319554Y-16828560D01*
X20693566Y-16567064D01*
X20688208Y-16567048D01*
X20683264Y-16565000D01*
X20005471Y-16565000D01*
X19327044Y-16562965D01*
X19322089Y-16565000D01*
X19316736Y-16565000D01*
X18690510Y-16824391D01*
X18062973Y-17082122D01*
X18054299Y-17087918D01*
X18054229Y-17087947D01*
X18054175Y-17088001D01*
X18045501Y-17093797D01*
X18038748Y-17103428D01*
X17103428Y-18038748D01*
X17093797Y-18045501D01*
X17091732Y-18050444D01*
X17087947Y-18054229D01*
X16828560Y-18680446D01*
X16567064Y-19306434D01*
X16567048Y-19311792D01*
X16565000Y-19316736D01*
X16565000Y-19994529D01*
X16562965Y-20672956D01*
X15710000Y-20672956D01*
X15710000Y-15710000D01*
X44290000Y-15710000D01*
X44290001Y-24290000D01*
M02*
