G04 #@! TF.GenerationSoftware,KiCad,Pcbnew,(5.0.0)*
G04 #@! TF.CreationDate,2018-12-11T22:03:55+01:00*
G04 #@! TF.ProjectId,1206_led_satellite_board-rev_1.0,313230365F6C65645F736174656C6C69,rev?*
G04 #@! TF.SameCoordinates,Original*
G04 #@! TF.FileFunction,Legend,Bot*
G04 #@! TF.FilePolarity,Positive*
%FSLAX46Y46*%
G04 Gerber Fmt 4.6, Leading zero omitted, Abs format (unit mm)*
G04 Created by KiCad (PCBNEW (5.0.0)) date 12/11/18 22:03:55*
%MOMM*%
%LPD*%
G01*
G04 APERTURE LIST*
%ADD10C,0.120000*%
%ADD11C,0.150000*%
G04 APERTURE END LIST*
D10*
G04 #@! TO.C,D1*
X42777679Y-18647249D02*
X38892679Y-18647249D01*
X38892679Y-18647249D02*
X38892679Y-16377249D01*
X38892679Y-16377249D02*
X42777679Y-16377249D01*
G04 #@! TO.C,D2*
X38892679Y-18767249D02*
X42777679Y-18767249D01*
X38892679Y-21037249D02*
X38892679Y-18767249D01*
X42777679Y-21037249D02*
X38892679Y-21037249D01*
G04 #@! TO.C,D3*
X42777679Y-23427249D02*
X38892679Y-23427249D01*
X38892679Y-23427249D02*
X38892679Y-21157249D01*
X38892679Y-21157249D02*
X42777679Y-21157249D01*
G04 #@! TO.C,R1*
X36560000Y-21155000D02*
X34560000Y-21155000D01*
X34560000Y-23295000D02*
X36560000Y-23295000D01*
G04 #@! TO.C,D1*
D11*
X38238095Y-17452380D02*
X38238095Y-16452380D01*
X38000000Y-16452380D01*
X37857142Y-16500000D01*
X37761904Y-16595238D01*
X37714285Y-16690476D01*
X37666666Y-16880952D01*
X37666666Y-17023809D01*
X37714285Y-17214285D01*
X37761904Y-17309523D01*
X37857142Y-17404761D01*
X38000000Y-17452380D01*
X38238095Y-17452380D01*
X36714285Y-17452380D02*
X37285714Y-17452380D01*
X37000000Y-17452380D02*
X37000000Y-16452380D01*
X37095238Y-16595238D01*
X37190476Y-16690476D01*
X37285714Y-16738095D01*
G04 #@! TO.C,D2*
X38238095Y-18952380D02*
X38238095Y-17952380D01*
X38000000Y-17952380D01*
X37857142Y-18000000D01*
X37761904Y-18095238D01*
X37714285Y-18190476D01*
X37666666Y-18380952D01*
X37666666Y-18523809D01*
X37714285Y-18714285D01*
X37761904Y-18809523D01*
X37857142Y-18904761D01*
X38000000Y-18952380D01*
X38238095Y-18952380D01*
X37285714Y-18047619D02*
X37238095Y-18000000D01*
X37142857Y-17952380D01*
X36904761Y-17952380D01*
X36809523Y-18000000D01*
X36761904Y-18047619D01*
X36714285Y-18142857D01*
X36714285Y-18238095D01*
X36761904Y-18380952D01*
X37333333Y-18952380D01*
X36714285Y-18952380D01*
G04 #@! TO.C,D3*
X38238095Y-20452380D02*
X38238095Y-19452380D01*
X38000000Y-19452380D01*
X37857142Y-19500000D01*
X37761904Y-19595238D01*
X37714285Y-19690476D01*
X37666666Y-19880952D01*
X37666666Y-20023809D01*
X37714285Y-20214285D01*
X37761904Y-20309523D01*
X37857142Y-20404761D01*
X38000000Y-20452380D01*
X38238095Y-20452380D01*
X37333333Y-19452380D02*
X36714285Y-19452380D01*
X37047619Y-19833333D01*
X36904761Y-19833333D01*
X36809523Y-19880952D01*
X36761904Y-19928571D01*
X36714285Y-20023809D01*
X36714285Y-20261904D01*
X36761904Y-20357142D01*
X36809523Y-20404761D01*
X36904761Y-20452380D01*
X37190476Y-20452380D01*
X37285714Y-20404761D01*
X37333333Y-20357142D01*
G04 #@! TO.C,R1*
X34666666Y-20452380D02*
X35000000Y-19976190D01*
X35238095Y-20452380D02*
X35238095Y-19452380D01*
X34857142Y-19452380D01*
X34761904Y-19500000D01*
X34714285Y-19547619D01*
X34666666Y-19642857D01*
X34666666Y-19785714D01*
X34714285Y-19880952D01*
X34761904Y-19928571D01*
X34857142Y-19976190D01*
X35238095Y-19976190D01*
X33714285Y-20452380D02*
X34285714Y-20452380D01*
X34000000Y-20452380D02*
X34000000Y-19452380D01*
X34095238Y-19595238D01*
X34190476Y-19690476D01*
X34285714Y-19738095D01*
G04 #@! TD*
M02*
