G04 #@! TF.GenerationSoftware,KiCad,Pcbnew,(5.0.0)*
G04 #@! TF.CreationDate,2018-12-11T22:03:55+01:00*
G04 #@! TF.ProjectId,1206_led_satellite_board-rev_1.0,313230365F6C65645F736174656C6C69,rev?*
G04 #@! TF.SameCoordinates,Original*
G04 #@! TF.FileFunction,Legend,Top*
G04 #@! TF.FilePolarity,Positive*
%FSLAX46Y46*%
G04 Gerber Fmt 4.6, Leading zero omitted, Abs format (unit mm)*
G04 Created by KiCad (PCBNEW (5.0.0)) date 12/11/18 22:03:55*
%MOMM*%
%LPD*%
G01*
G04 APERTURE LIST*
%ADD10C,0.250000*%
%ADD11C,0.300000*%
%ADD12C,0.120000*%
%ADD13C,0.150000*%
G04 APERTURE END LIST*
D10*
X36004166Y-20702380D02*
X36004166Y-19702380D01*
X36385119Y-19702380D01*
X36480357Y-19750000D01*
X36527976Y-19797619D01*
X36575595Y-19892857D01*
X36575595Y-20035714D01*
X36527976Y-20130952D01*
X36480357Y-20178571D01*
X36385119Y-20226190D01*
X36004166Y-20226190D01*
X37004166Y-20702380D02*
X37004166Y-20035714D01*
X37004166Y-19702380D02*
X36956547Y-19750000D01*
X37004166Y-19797619D01*
X37051785Y-19750000D01*
X37004166Y-19702380D01*
X37004166Y-19797619D01*
X37480357Y-20035714D02*
X37480357Y-20702380D01*
X37480357Y-20130952D02*
X37527976Y-20083333D01*
X37623214Y-20035714D01*
X37766071Y-20035714D01*
X37861309Y-20083333D01*
X37908928Y-20178571D01*
X37908928Y-20702380D01*
X38718452Y-20178571D02*
X38861309Y-20226190D01*
X38908928Y-20273809D01*
X38956547Y-20369047D01*
X38956547Y-20511904D01*
X38908928Y-20607142D01*
X38861309Y-20654761D01*
X38766071Y-20702380D01*
X38385119Y-20702380D01*
X38385119Y-19702380D01*
X38718452Y-19702380D01*
X38813690Y-19750000D01*
X38861309Y-19797619D01*
X38908928Y-19892857D01*
X38908928Y-19988095D01*
X38861309Y-20083333D01*
X38813690Y-20130952D01*
X38718452Y-20178571D01*
X38385119Y-20178571D01*
X39813690Y-20035714D02*
X39813690Y-20702380D01*
X39385119Y-20035714D02*
X39385119Y-20559523D01*
X39432738Y-20654761D01*
X39527976Y-20702380D01*
X39670833Y-20702380D01*
X39766071Y-20654761D01*
X39813690Y-20607142D01*
X40242261Y-20654761D02*
X40337500Y-20702380D01*
X40527976Y-20702380D01*
X40623214Y-20654761D01*
X40670833Y-20559523D01*
X40670833Y-20511904D01*
X40623214Y-20416666D01*
X40527976Y-20369047D01*
X40385119Y-20369047D01*
X40289880Y-20321428D01*
X40242261Y-20226190D01*
X40242261Y-20178571D01*
X40289880Y-20083333D01*
X40385119Y-20035714D01*
X40527976Y-20035714D01*
X40623214Y-20083333D01*
X42337500Y-20702380D02*
X41861309Y-20702380D01*
X41861309Y-19702380D01*
X42670833Y-20178571D02*
X43004166Y-20178571D01*
X43147023Y-20702380D02*
X42670833Y-20702380D01*
X42670833Y-19702380D01*
X43147023Y-19702380D01*
X43575595Y-20702380D02*
X43575595Y-19702380D01*
X43813690Y-19702380D01*
X43956547Y-19750000D01*
X44051785Y-19845238D01*
X44099404Y-19940476D01*
X44147023Y-20130952D01*
X44147023Y-20273809D01*
X44099404Y-20464285D01*
X44051785Y-20559523D01*
X43956547Y-20654761D01*
X43813690Y-20702380D01*
X43575595Y-20702380D01*
X33194642Y-22404761D02*
X33337500Y-22452380D01*
X33575595Y-22452380D01*
X33670833Y-22404761D01*
X33718452Y-22357142D01*
X33766071Y-22261904D01*
X33766071Y-22166666D01*
X33718452Y-22071428D01*
X33670833Y-22023809D01*
X33575595Y-21976190D01*
X33385119Y-21928571D01*
X33289880Y-21880952D01*
X33242261Y-21833333D01*
X33194642Y-21738095D01*
X33194642Y-21642857D01*
X33242261Y-21547619D01*
X33289880Y-21500000D01*
X33385119Y-21452380D01*
X33623214Y-21452380D01*
X33766071Y-21500000D01*
X34623214Y-22452380D02*
X34623214Y-21928571D01*
X34575595Y-21833333D01*
X34480357Y-21785714D01*
X34289880Y-21785714D01*
X34194642Y-21833333D01*
X34623214Y-22404761D02*
X34527976Y-22452380D01*
X34289880Y-22452380D01*
X34194642Y-22404761D01*
X34147023Y-22309523D01*
X34147023Y-22214285D01*
X34194642Y-22119047D01*
X34289880Y-22071428D01*
X34527976Y-22071428D01*
X34623214Y-22023809D01*
X34956547Y-21785714D02*
X35337500Y-21785714D01*
X35099404Y-21452380D02*
X35099404Y-22309523D01*
X35147023Y-22404761D01*
X35242261Y-22452380D01*
X35337500Y-22452380D01*
X36051785Y-22404761D02*
X35956547Y-22452380D01*
X35766071Y-22452380D01*
X35670833Y-22404761D01*
X35623214Y-22309523D01*
X35623214Y-21928571D01*
X35670833Y-21833333D01*
X35766071Y-21785714D01*
X35956547Y-21785714D01*
X36051785Y-21833333D01*
X36099404Y-21928571D01*
X36099404Y-22023809D01*
X35623214Y-22119047D01*
X36670833Y-22452380D02*
X36575595Y-22404761D01*
X36527976Y-22309523D01*
X36527976Y-21452380D01*
X37194642Y-22452380D02*
X37099404Y-22404761D01*
X37051785Y-22309523D01*
X37051785Y-21452380D01*
X37575595Y-22452380D02*
X37575595Y-21785714D01*
X37575595Y-21452380D02*
X37527976Y-21500000D01*
X37575595Y-21547619D01*
X37623214Y-21500000D01*
X37575595Y-21452380D01*
X37575595Y-21547619D01*
X37908928Y-21785714D02*
X38289880Y-21785714D01*
X38051785Y-21452380D02*
X38051785Y-22309523D01*
X38099404Y-22404761D01*
X38194642Y-22452380D01*
X38289880Y-22452380D01*
X39004166Y-22404761D02*
X38908928Y-22452380D01*
X38718452Y-22452380D01*
X38623214Y-22404761D01*
X38575595Y-22309523D01*
X38575595Y-21928571D01*
X38623214Y-21833333D01*
X38718452Y-21785714D01*
X38908928Y-21785714D01*
X39004166Y-21833333D01*
X39051785Y-21928571D01*
X39051785Y-22023809D01*
X38575595Y-22119047D01*
X40575595Y-21928571D02*
X40718452Y-21976190D01*
X40766071Y-22023809D01*
X40813690Y-22119047D01*
X40813690Y-22261904D01*
X40766071Y-22357142D01*
X40718452Y-22404761D01*
X40623214Y-22452380D01*
X40242261Y-22452380D01*
X40242261Y-21452380D01*
X40575595Y-21452380D01*
X40670833Y-21500000D01*
X40718452Y-21547619D01*
X40766071Y-21642857D01*
X40766071Y-21738095D01*
X40718452Y-21833333D01*
X40670833Y-21880952D01*
X40575595Y-21928571D01*
X40242261Y-21928571D01*
X41385119Y-22452380D02*
X41289880Y-22404761D01*
X41242261Y-22357142D01*
X41194642Y-22261904D01*
X41194642Y-21976190D01*
X41242261Y-21880952D01*
X41289880Y-21833333D01*
X41385119Y-21785714D01*
X41527976Y-21785714D01*
X41623214Y-21833333D01*
X41670833Y-21880952D01*
X41718452Y-21976190D01*
X41718452Y-22261904D01*
X41670833Y-22357142D01*
X41623214Y-22404761D01*
X41527976Y-22452380D01*
X41385119Y-22452380D01*
X42575595Y-22452380D02*
X42575595Y-21928571D01*
X42527976Y-21833333D01*
X42432738Y-21785714D01*
X42242261Y-21785714D01*
X42147023Y-21833333D01*
X42575595Y-22404761D02*
X42480357Y-22452380D01*
X42242261Y-22452380D01*
X42147023Y-22404761D01*
X42099404Y-22309523D01*
X42099404Y-22214285D01*
X42147023Y-22119047D01*
X42242261Y-22071428D01*
X42480357Y-22071428D01*
X42575595Y-22023809D01*
X43051785Y-22452380D02*
X43051785Y-21785714D01*
X43051785Y-21976190D02*
X43099404Y-21880952D01*
X43147023Y-21833333D01*
X43242261Y-21785714D01*
X43337500Y-21785714D01*
X44099404Y-22452380D02*
X44099404Y-21452380D01*
X44099404Y-22404761D02*
X44004166Y-22452380D01*
X43813690Y-22452380D01*
X43718452Y-22404761D01*
X43670833Y-22357142D01*
X43623214Y-22261904D01*
X43623214Y-21976190D01*
X43670833Y-21880952D01*
X43718452Y-21833333D01*
X43813690Y-21785714D01*
X44004166Y-21785714D01*
X44099404Y-21833333D01*
X38908928Y-24202380D02*
X38575595Y-23726190D01*
X38337500Y-24202380D02*
X38337500Y-23202380D01*
X38718452Y-23202380D01*
X38813690Y-23250000D01*
X38861309Y-23297619D01*
X38908928Y-23392857D01*
X38908928Y-23535714D01*
X38861309Y-23630952D01*
X38813690Y-23678571D01*
X38718452Y-23726190D01*
X38337500Y-23726190D01*
X39718452Y-24154761D02*
X39623214Y-24202380D01*
X39432738Y-24202380D01*
X39337500Y-24154761D01*
X39289880Y-24059523D01*
X39289880Y-23678571D01*
X39337500Y-23583333D01*
X39432738Y-23535714D01*
X39623214Y-23535714D01*
X39718452Y-23583333D01*
X39766071Y-23678571D01*
X39766071Y-23773809D01*
X39289880Y-23869047D01*
X40099404Y-23535714D02*
X40337500Y-24202380D01*
X40575595Y-23535714D01*
X40956547Y-24107142D02*
X41004166Y-24154761D01*
X40956547Y-24202380D01*
X40908928Y-24154761D01*
X40956547Y-24107142D01*
X40956547Y-24202380D01*
X42718452Y-24202380D02*
X42147023Y-24202380D01*
X42432738Y-24202380D02*
X42432738Y-23202380D01*
X42337500Y-23345238D01*
X42242261Y-23440476D01*
X42147023Y-23488095D01*
X43147023Y-24107142D02*
X43194642Y-24154761D01*
X43147023Y-24202380D01*
X43099404Y-24154761D01*
X43147023Y-24107142D01*
X43147023Y-24202380D01*
X43813690Y-23202380D02*
X43908928Y-23202380D01*
X44004166Y-23250000D01*
X44051785Y-23297619D01*
X44099404Y-23392857D01*
X44147023Y-23583333D01*
X44147023Y-23821428D01*
X44099404Y-24011904D01*
X44051785Y-24107142D01*
X44004166Y-24154761D01*
X43908928Y-24202380D01*
X43813690Y-24202380D01*
X43718452Y-24154761D01*
X43670833Y-24107142D01*
X43623214Y-24011904D01*
X43575595Y-23821428D01*
X43575595Y-23583333D01*
X43623214Y-23392857D01*
X43670833Y-23297619D01*
X43718452Y-23250000D01*
X43813690Y-23202380D01*
D11*
X32357142Y-15750000D02*
X32214285Y-15678571D01*
X32000000Y-15678571D01*
X31785714Y-15750000D01*
X31642857Y-15892857D01*
X31571428Y-16035714D01*
X31500000Y-16321428D01*
X31500000Y-16535714D01*
X31571428Y-16821428D01*
X31642857Y-16964285D01*
X31785714Y-17107142D01*
X32000000Y-17178571D01*
X32142857Y-17178571D01*
X32357142Y-17107142D01*
X32428571Y-17035714D01*
X32428571Y-16535714D01*
X32142857Y-16535714D01*
X33071428Y-17178571D02*
X33071428Y-15678571D01*
X33928571Y-17178571D01*
X33928571Y-15678571D01*
X34642857Y-17178571D02*
X34642857Y-15678571D01*
X35000000Y-15678571D01*
X35214285Y-15750000D01*
X35357142Y-15892857D01*
X35428571Y-16035714D01*
X35500000Y-16321428D01*
X35500000Y-16535714D01*
X35428571Y-16821428D01*
X35357142Y-16964285D01*
X35214285Y-17107142D01*
X35000000Y-17178571D01*
X34642857Y-17178571D01*
X31428571Y-23607142D02*
X32571428Y-23607142D01*
X32000000Y-24178571D02*
X32000000Y-23035714D01*
D12*
G04 #@! TO.C,J1*
X30690000Y-15900000D02*
X28190000Y-15900000D01*
X30690000Y-18400000D02*
X30690000Y-15900000D01*
X25190000Y-23050000D02*
X25190000Y-20000000D01*
X28140000Y-23050000D02*
X25190000Y-23050000D01*
X28140000Y-23800000D02*
X28140000Y-23050000D01*
X25190000Y-16950000D02*
X25190000Y-20000000D01*
X28140000Y-16950000D02*
X25190000Y-16950000D01*
X28140000Y-16200000D02*
X28140000Y-16950000D01*
X30390000Y-23800000D02*
X30390000Y-22000000D01*
X29640000Y-23800000D02*
X30390000Y-23800000D01*
X29640000Y-22000000D02*
X29640000Y-23800000D01*
X30390000Y-22000000D02*
X29640000Y-22000000D01*
X30390000Y-18000000D02*
X30390000Y-16200000D01*
X29640000Y-18000000D02*
X30390000Y-18000000D01*
X29640000Y-16200000D02*
X29640000Y-18000000D01*
X30390000Y-16200000D02*
X29640000Y-16200000D01*
X30390000Y-20500000D02*
X30390000Y-19500000D01*
X29640000Y-20500000D02*
X30390000Y-20500000D01*
X29640000Y-19500000D02*
X29640000Y-20500000D01*
X30390000Y-19500000D02*
X29640000Y-19500000D01*
X30390000Y-23800000D02*
X30390000Y-16200000D01*
X24440000Y-23800000D02*
X30390000Y-23800000D01*
X24440000Y-16200000D02*
X24440000Y-23800000D01*
X30390000Y-16200000D02*
X24440000Y-16200000D01*
D13*
X30892380Y-20333333D02*
X31606666Y-20333333D01*
X31749523Y-20380952D01*
X31844761Y-20476190D01*
X31892380Y-20619047D01*
X31892380Y-20714285D01*
X31892380Y-19333333D02*
X31892380Y-19904761D01*
X31892380Y-19619047D02*
X30892380Y-19619047D01*
X31035238Y-19714285D01*
X31130476Y-19809523D01*
X31178095Y-19904761D01*
G04 #@! TD*
M02*
