<?xml version="1.0" standalone="no"?>
 <!DOCTYPE svg PUBLIC "-//W3C//DTD SVG 1.1//EN" 
 "http://www.w3.org/Graphics/SVG/1.1/DTD/svg11.dtd"> 
<svg xmlns="http://www.w3.org/2000/svg" version="1.1" 
    width="29.7002cm" height="21.0007cm" viewBox="0 0 116930 82680 ">
<title>SVG Picture created as 1206_led_satellite_board-rev_1.0-B.Cu.svg date 2018/12/11 22:04:26 </title>
  <desc>Picture generated by PCBNEW </desc>
<g style="fill:#000000; fill-opacity:1;stroke:#000000; stroke-opacity:1;
stroke-linecap:round; stroke-linejoin:round; "
 transform="translate(0 0) scale(1 1)">
</g>
<g style="fill:#000000; fill-opacity:0.0; 
stroke:#000000; stroke-width:-0.000393701; stroke-opacity:1; 
stroke-linecap:round; stroke-linejoin:round;">
</g>
<g style="fill:#000000; fill-opacity:0.0; 
stroke:#000000; stroke-width:0; stroke-opacity:1; 
stroke-linecap:round; stroke-linejoin:round;">
</g>
<g style="fill:#000000; fill-opacity:1.0; 
stroke:#000000; stroke-width:0; stroke-opacity:1; 
stroke-linecap:round; stroke-linejoin:round;">
<polyline style="fill-rule:evenodd;"
points="15817,6550
15827,6551
15836,6554
15845,6557
15854,6561
15862,6566
15870,6572
15877,6578
15884,6586
15889,6593
15894,6602
15899,6610
15902,6619
15904,6629
15906,6638
15906,6648
15906,7140
15906,7150
15904,7159
15902,7169
15899,7178
15894,7187
15889,7195
15884,7203
15877,7210
15870,7216
15862,7222
15854,7227
15845,7231
15836,7234
15827,7237
15817,7238
15808,7239
15512,7239
15503,7238
15493,7237
15484,7234
15475,7231
15466,7227
15458,7222
15450,7216
15443,7210
15436,7203
15431,7195
15426,7187
15421,7178
15418,7169
15416,7159
15414,7150
15414,7140
15414,6648
15414,6638
15416,6629
15418,6619
15421,6610
15426,6602
15431,6593
15436,6586
15443,6578
15450,6572
15458,6566
15466,6561
15475,6557
15484,6554
15493,6551
15503,6550
15512,6550
15808,6550
15817,6550
" /> 
<polyline style="fill-rule:evenodd;"
points="16920,6550
16929,6551
16939,6554
16948,6557
16956,6561
16965,6566
16972,6572
16980,6578
16986,6586
16992,6593
16997,6602
17001,6610
17004,6619
17007,6629
17008,6638
17008,6648
17008,7140
17008,7150
17007,7159
17004,7169
17001,7178
16997,7187
16992,7195
16986,7203
16980,7210
16972,7216
16965,7222
16956,7227
16948,7231
16939,7234
16929,7237
16920,7238
16910,7239
16615,7239
16605,7238
16596,7237
16586,7234
16577,7231
16568,7227
16560,7222
16552,7216
16545,7210
16539,7203
16533,7195
16528,7187
16524,7178
16521,7169
16518,7159
16517,7150
16516,7140
16516,6648
16517,6638
16518,6629
16521,6619
16524,6610
16528,6602
16533,6593
16539,6586
16545,6578
16552,6572
16560,6566
16568,6561
16577,6557
16586,6554
16596,6551
16605,6550
16615,6550
16910,6550
16920,6550
" /> 
<polyline style="fill-rule:evenodd;"
points="16920,7491
16929,7492
16939,7495
16948,7498
16956,7502
16965,7507
16972,7513
16980,7519
16986,7527
16992,7534
16997,7543
17001,7551
17004,7560
17007,7570
17008,7579
17008,7589
17008,8081
17008,8091
17007,8100
17004,8110
17001,8119
16997,8127
16992,8136
16986,8144
16980,8151
16972,8157
16965,8163
16956,8168
16948,8172
16939,8175
16929,8178
16920,8179
16910,8180
16615,8180
16605,8179
16596,8178
16586,8175
16577,8172
16568,8168
16560,8163
16552,8157
16545,8151
16539,8144
16533,8136
16528,8127
16524,8119
16521,8110
16518,8100
16517,8091
16516,8081
16516,7589
16517,7579
16518,7570
16521,7560
16524,7551
16528,7543
16533,7534
16539,7527
16545,7519
16552,7513
16560,7507
16568,7502
16577,7498
16586,7495
16596,7492
16605,7491
16615,7491
16910,7491
16920,7491
" /> 
<polyline style="fill-rule:evenodd;"
points="15817,7491
15827,7492
15836,7495
15845,7498
15854,7502
15862,7507
15870,7513
15877,7519
15884,7527
15889,7534
15894,7543
15899,7551
15902,7560
15904,7570
15906,7579
15906,7589
15906,8081
15906,8091
15904,8100
15902,8110
15899,8119
15894,8127
15889,8136
15884,8144
15877,8151
15870,8157
15862,8163
15854,8168
15845,8172
15836,8175
15827,8178
15817,8179
15808,8180
15512,8180
15503,8179
15493,8178
15484,8175
15475,8172
15466,8168
15458,8163
15450,8157
15443,8151
15436,8144
15431,8136
15426,8127
15421,8119
15418,8110
15416,8100
15414,8091
15414,8081
15414,7589
15414,7579
15416,7570
15418,7560
15421,7551
15426,7543
15431,7534
15436,7527
15443,7519
15450,7513
15458,7507
15466,7502
15475,7498
15484,7495
15493,7492
15503,7491
15512,7491
15808,7491
15817,7491
" /> 
<polyline style="fill-rule:evenodd;"
points="15817,8432
15827,8433
15836,8436
15845,8439
15854,8443
15862,8448
15870,8454
15877,8460
15884,8467
15889,8475
15894,8484
15899,8492
15902,8501
15904,8511
15906,8520
15906,8530
15906,9022
15906,9032
15904,9041
15902,9051
15899,9060
15894,9068
15889,9077
15884,9084
15877,9092
15870,9098
15862,9104
15854,9109
15845,9113
15836,9116
15827,9119
15817,9120
15808,9120
15512,9120
15503,9120
15493,9119
15484,9116
15475,9113
15466,9109
15458,9104
15450,9098
15443,9092
15436,9084
15431,9077
15426,9068
15421,9060
15418,9051
15416,9041
15414,9032
15414,9022
15414,8530
15414,8520
15416,8511
15418,8501
15421,8492
15426,8484
15431,8475
15436,8467
15443,8460
15450,8454
15458,8448
15466,8443
15475,8439
15484,8436
15493,8433
15503,8432
15512,8431
15808,8431
15817,8432
" /> 
<polyline style="fill-rule:evenodd;"
points="16920,8432
16929,8433
16939,8436
16948,8439
16956,8443
16965,8448
16972,8454
16980,8460
16986,8467
16992,8475
16997,8484
17001,8492
17004,8501
17007,8511
17008,8520
17008,8530
17008,9022
17008,9032
17007,9041
17004,9051
17001,9060
16997,9068
16992,9077
16986,9084
16980,9092
16972,9098
16965,9104
16956,9109
16948,9113
16939,9116
16929,9119
16920,9120
16910,9120
16615,9120
16605,9120
16596,9119
16586,9116
16577,9113
16568,9109
16560,9104
16552,9098
16545,9092
16539,9084
16533,9077
16528,9068
16524,9060
16521,9051
16518,9041
16517,9032
16516,9022
16516,8530
16517,8520
16518,8511
16521,8501
16524,8492
16528,8484
16533,8475
16539,8467
16545,8460
16552,8454
16560,8448
16568,8443
16577,8439
16586,8436
16596,8433
16605,8432
16615,8431
16910,8431
16920,8432
" /> 
<circle cx="11000" cy="8366.14" r="344.488" /> 
</g>
<g style="fill:#000000; fill-opacity:1.0; 
stroke:#000000; stroke-width:39.3701; stroke-opacity:1; 
stroke-linecap:round; stroke-linejoin:round;">
</g>
<g style="fill:#000000; fill-opacity:1.0; 
stroke:#000000; stroke-width:0; stroke-opacity:1; 
stroke-linecap:round; stroke-linejoin:round;">
<polyline style="fill-rule:evenodd;"
points="10655,7037
11344,7037
11344,7726
10655,7726
10655,7037
" /> 
<polyline style="fill-rule:evenodd;"
points="13606,8415
13606,9084
13251,9084
13251,8415
13606,8415
" /> 
<polyline style="fill-rule:evenodd;"
points="14748,8415
14748,9084
14393,9084
14393,8415
14748,8415
" /> 
<circle cx="7874.02" cy="7874.02" r="1102.36" /> 
</g>
<g style="fill:#000000; fill-opacity:1.0; 
stroke:#000000; stroke-width:39.3701; stroke-opacity:1; 
stroke-linecap:round; stroke-linejoin:round;">
</g>
<g style="fill:#000000; fill-opacity:1.0; 
stroke:#000000; stroke-width:0; stroke-opacity:1; 
stroke-linecap:round; stroke-linejoin:round;">
<circle cx="12795.3" cy="8750" r="157.48" /> 
</g>
<g style="fill:#000000; fill-opacity:1.0; 
stroke:#000000; stroke-width:39.3701; stroke-opacity:1; 
stroke-linecap:round; stroke-linejoin:round;">
</g>
<g style="fill:#000000; fill-opacity:1.0; 
stroke:#000000; stroke-width:196.85; stroke-opacity:1; 
stroke-linecap:round; stroke-linejoin:round;">
</g>
<g style="fill:#000000; fill-opacity:0.0; 
stroke:#000000; stroke-width:196.85; stroke-opacity:1; 
stroke-linecap:round; stroke-linejoin:round;">
<path d="M15994 6894
L15660 6894
" />
<path d="M16200 7100
L15994 6894
" />
<path d="M16200 7558
L16200 7100
" />
<path d="M16762 7835
L16477 7835
" />
<path d="M16477 7835
L16200 7558
" />
<path d="M15945 7835
L15660 7835
" />
<path d="M16200 8089
L15945 7835
" />
<path d="M16200 8500
L16200 8089
" />
<path d="M16200 8500
L16200 8500
" />
<path d="M16477 8776
L16200 8500
" />
<path d="M16762 8776
L16477 8776
" />
<path d="M15634 8750
L15660 8776
" />
<path d="M14570 8750
L15634 8750
" />
<path d="M13429 8750
L12795 8750
" />
</g>
<g style="fill:#000000; fill-opacity:1.0; 
stroke:#000000; stroke-width:100; stroke-opacity:1; 
stroke-linecap:round; stroke-linejoin:round;">
<polyline style="fill-rule:evenodd;"
points="17437,9562
6185,9562
6185,7605
6521,7605
6521,8143
6727,8640
7107,9020
7605,9226
8143,9226
8640,9020
9020,8640
9226,8143
9226,7605
9180,7494
10405,7494
10405,7776
10443,7867
10513,7938
10565,7959
10496,8029
10405,8247
10405,8484
10496,8702
10663,8870
10881,8960
11118,8960
11336,8870
11503,8702
11518,8668
12387,8668
12387,8831
12449,8980
12564,9095
12714,9157
12876,9157
13001,9105
13016,9182
13071,9264
13154,9320
13251,9339
13606,9339
13703,9320
13786,9264
13841,9182
13861,9084
13861,8415
14138,8415
14138,9084
14158,9182
14213,9264
14296,9320
14393,9339
14748,9339
14845,9320
14928,9264
14983,9182
15000,9098
15174,9098
15186,9157
15263,9272
15377,9348
15512,9375
15808,9375
15943,9348
16057,9272
16134,9157
16161,9022
16161,8953
16206,8998
16226,9027
16255,9047
16255,9047
16268,9055
16288,9157
16365,9272
16480,9348
16615,9375
16910,9375
17045,9348
17160,9272
17236,9157
17263,9022
17263,8530
17236,8395
17177,8306
17236,8216
17263,8081
17263,7589
17236,7454
17201,7400
17220,7380
17258,7288
17258,7007
17196,6944
16812,6944
16812,6952
16712,6952
16712,6944
16704,6944
16704,6844
16712,6844
16712,6362
16812,6362
16812,6844
17196,6844
17258,6782
17258,6500
17220,6408
17150,6338
17058,6300
16875,6300
16812,6362
16712,6362
16650,6300
16467,6300
16375,6338
16304,6408
16266,6500
16266,6674
16265,6672
16245,6643
16147,6577
16134,6513
16057,6398
15943,6322
15808,6295
15512,6295
15377,6322
15263,6398
15186,6513
15159,6648
15159,7140
15186,7275
15246,7365
15186,7454
15159,7589
15159,8081
15186,8216
15246,8306
15186,8395
15185,8401
15000,8401
14983,8317
14928,8235
14845,8179
14748,8160
14393,8160
14296,8179
14213,8235
14158,8317
14138,8415
13861,8415
13841,8317
13786,8235
13703,8179
13606,8160
13251,8160
13154,8179
13071,8235
13016,8317
13001,8394
12876,8342
12714,8342
12564,8404
12449,8519
12387,8668
11518,8668
11594,8484
11594,8247
11503,8029
11434,7959
11486,7938
11556,7867
11594,7776
11594,7494
11531,7431
11050,7431
11050,7439
10950,7439
10950,7431
10468,7431
10405,7494
9180,7494
9020,7107
8900,6987
10405,6987
10405,7269
10468,7331
10950,7331
10950,6849
11050,6849
11050,7331
11531,7331
11594,7269
11594,6987
11556,6895
11486,6825
11394,6787
11112,6787
11050,6849
10950,6849
10887,6787
10605,6787
10513,6825
10443,6895
10405,6987
8900,6987
8640,6727
8143,6521
7605,6521
7107,6727
6727,7107
6521,7605
6185,7605
6185,6185
17437,6185
17437,9562
" /> 
</g> 
</svg>
