<?xml version="1.0" standalone="no"?>
 <!DOCTYPE svg PUBLIC "-//W3C//DTD SVG 1.1//EN" 
 "http://www.w3.org/Graphics/SVG/1.1/DTD/svg11.dtd"> 
<svg xmlns="http://www.w3.org/2000/svg" version="1.1" 
    width="29.7002cm" height="21.0007cm" viewBox="0 0 116930 82680 ">
<title>SVG Picture created as 1206_led_satellite_board-rev_1.0-B.Mask.svg date 2018/12/11 22:04:26 </title>
  <desc>Picture generated by PCBNEW </desc>
<g style="fill:#000000; fill-opacity:1;stroke:#000000; stroke-opacity:1;
stroke-linecap:round; stroke-linejoin:round; "
 transform="translate(0 0) scale(1 1)">
</g>
<g style="fill:#000000; fill-opacity:0.0; 
stroke:#000000; stroke-width:-0.000393701; stroke-opacity:1; 
stroke-linecap:round; stroke-linejoin:round;">
</g>
<g style="fill:#000000; fill-opacity:0.0; 
stroke:#000000; stroke-width:0; stroke-opacity:1; 
stroke-linecap:round; stroke-linejoin:round;">
</g>
<g style="fill:#000000; fill-opacity:1.0; 
stroke:#000000; stroke-width:0; stroke-opacity:1; 
stroke-linecap:round; stroke-linejoin:round;">
<polyline style="fill-rule:evenodd;"
points="15868,6471
15880,6473
15893,6476
15905,6481
15916,6486
15927,6493
15937,6500
15947,6509
15955,6518
15963,6529
15969,6540
15975,6551
15979,6563
15982,6575
15984,6588
15985,6601
15985,7187
15984,7200
15982,7213
15979,7225
15975,7237
15969,7249
15963,7260
15955,7270
15947,7279
15937,7288
15927,7295
15916,7302
15905,7307
15893,7312
15880,7315
15868,7317
15855,7317
15465,7317
15452,7317
15440,7315
15427,7312
15415,7307
15404,7302
15393,7295
15383,7288
15373,7279
15365,7270
15357,7260
15351,7249
15345,7237
15341,7225
15338,7213
15336,7200
15335,7187
15335,6601
15336,6588
15338,6575
15341,6563
15345,6551
15351,6540
15357,6529
15365,6518
15373,6509
15383,6500
15393,6493
15404,6486
15415,6481
15427,6476
15440,6473
15452,6471
15465,6471
15855,6471
15868,6471
" /> 
<polyline style="fill-rule:evenodd;"
points="16970,6471
16983,6473
16995,6476
17007,6481
17018,6486
17029,6493
17040,6500
17049,6509
17058,6518
17065,6529
17072,6540
17077,6551
17082,6563
17085,6575
17087,6588
17087,6601
17087,7187
17087,7200
17085,7213
17082,7225
17077,7237
17072,7249
17065,7260
17058,7270
17049,7279
17040,7288
17029,7295
17018,7302
17007,7307
16995,7312
16983,7315
16970,7317
16957,7317
16567,7317
16555,7317
16542,7315
16530,7312
16518,7307
16506,7302
16495,7295
16485,7288
16476,7279
16467,7270
16459,7260
16453,7249
16447,7237
16443,7225
16440,7213
16438,7200
16438,7187
16438,6601
16438,6588
16440,6575
16443,6563
16447,6551
16453,6540
16459,6529
16467,6518
16476,6509
16485,6500
16495,6493
16506,6486
16518,6481
16530,6476
16542,6473
16555,6471
16567,6471
16957,6471
16970,6471
" /> 
<polyline style="fill-rule:evenodd;"
points="16970,7412
16983,7414
16995,7417
17007,7422
17018,7427
17029,7434
17040,7441
17049,7450
17058,7459
17065,7470
17072,7480
17077,7492
17082,7504
17085,7516
17087,7529
17087,7542
17087,8128
17087,8141
17085,8154
17082,8166
17077,8178
17072,8190
17065,8201
17058,8211
17049,8220
17040,8229
17029,8236
17018,8243
17007,8248
16995,8253
16983,8256
16970,8258
16957,8258
16567,8258
16555,8258
16542,8256
16530,8253
16518,8248
16506,8243
16495,8236
16485,8229
16476,8220
16467,8211
16459,8201
16453,8190
16447,8178
16443,8166
16440,8154
16438,8141
16438,8128
16438,7542
16438,7529
16440,7516
16443,7504
16447,7492
16453,7480
16459,7470
16467,7459
16476,7450
16485,7441
16495,7434
16506,7427
16518,7422
16530,7417
16542,7414
16555,7412
16567,7412
16957,7412
16970,7412
" /> 
<polyline style="fill-rule:evenodd;"
points="15868,7412
15880,7414
15893,7417
15905,7422
15916,7427
15927,7434
15937,7441
15947,7450
15955,7459
15963,7470
15969,7480
15975,7492
15979,7504
15982,7516
15984,7529
15985,7542
15985,8128
15984,8141
15982,8154
15979,8166
15975,8178
15969,8190
15963,8201
15955,8211
15947,8220
15937,8229
15927,8236
15916,8243
15905,8248
15893,8253
15880,8256
15868,8258
15855,8258
15465,8258
15452,8258
15440,8256
15427,8253
15415,8248
15404,8243
15393,8236
15383,8229
15373,8220
15365,8211
15357,8201
15351,8190
15345,8178
15341,8166
15338,8154
15336,8141
15335,8128
15335,7542
15336,7529
15338,7516
15341,7504
15345,7492
15351,7480
15357,7470
15365,7459
15373,7450
15383,7441
15393,7434
15404,7427
15415,7422
15427,7417
15440,7414
15452,7412
15465,7412
15855,7412
15868,7412
" /> 
<polyline style="fill-rule:evenodd;"
points="15868,8353
15880,8355
15893,8358
15905,8363
15916,8368
15927,8375
15937,8382
15947,8391
15955,8400
15963,8410
15969,8421
15975,8433
15979,8445
15982,8457
15984,8470
15985,8483
15985,9069
15984,9082
15982,9095
15979,9107
15975,9119
15969,9131
15963,9141
15955,9152
15947,9161
15937,9170
15927,9177
15916,9184
15905,9189
15893,9194
15880,9197
15868,9199
15855,9199
15465,9199
15452,9199
15440,9197
15427,9194
15415,9189
15404,9184
15393,9177
15383,9170
15373,9161
15365,9152
15357,9141
15351,9131
15345,9119
15341,9107
15338,9095
15336,9082
15335,9069
15335,8483
15336,8470
15338,8457
15341,8445
15345,8433
15351,8421
15357,8410
15365,8400
15373,8391
15383,8382
15393,8375
15404,8368
15415,8363
15427,8358
15440,8355
15452,8353
15465,8353
15855,8353
15868,8353
" /> 
<polyline style="fill-rule:evenodd;"
points="16970,8353
16983,8355
16995,8358
17007,8363
17018,8368
17029,8375
17040,8382
17049,8391
17058,8400
17065,8410
17072,8421
17077,8433
17082,8445
17085,8457
17087,8470
17087,8483
17087,9069
17087,9082
17085,9095
17082,9107
17077,9119
17072,9131
17065,9141
17058,9152
17049,9161
17040,9170
17029,9177
17018,9184
17007,9189
16995,9194
16983,9197
16970,9199
16957,9199
16567,9199
16555,9199
16542,9197
16530,9194
16518,9189
16506,9184
16495,9177
16485,9170
16476,9161
16467,9152
16459,9141
16453,9131
16447,9119
16443,9107
16440,9095
16438,9082
16438,9069
16438,8483
16438,8470
16440,8457
16443,8445
16447,8433
16453,8421
16459,8410
16467,8400
16476,8391
16485,8382
16495,8375
16506,8368
16518,8363
16530,8358
16542,8355
16555,8353
16567,8353
16957,8353
16970,8353
" /> 
<circle cx="11000" cy="8366.14" r="423.228" /> 
</g>
<g style="fill:#000000; fill-opacity:1.0; 
stroke:#000000; stroke-width:39.3701; stroke-opacity:1; 
stroke-linecap:round; stroke-linejoin:round;">
</g>
<g style="fill:#000000; fill-opacity:1.0; 
stroke:#000000; stroke-width:0; stroke-opacity:1; 
stroke-linecap:round; stroke-linejoin:round;">
<polyline style="fill-rule:evenodd;"
points="10576,6958
11423,6958
11423,7805
10576,7805
10576,6958
" /> 
<polyline style="fill-rule:evenodd;"
points="13685,8336
13685,9163
13173,9163
13173,8336
13685,8336
" /> 
<polyline style="fill-rule:evenodd;"
points="14826,8336
14826,9163
14314,9163
14314,8336
14826,8336
" /> 
<circle cx="7874.02" cy="7874.02" r="1181.1" /> 
</g>
<g style="fill:#000000; fill-opacity:1.0; 
stroke:#000000; stroke-width:39.3701; stroke-opacity:1; 
stroke-linecap:round; stroke-linejoin:round;">
</g> 
</svg>
