<?xml version="1.0" standalone="no"?>
 <!DOCTYPE svg PUBLIC "-//W3C//DTD SVG 1.1//EN" 
 "http://www.w3.org/Graphics/SVG/1.1/DTD/svg11.dtd"> 
<svg xmlns="http://www.w3.org/2000/svg" version="1.1" 
    width="29.7002cm" height="21.0007cm" viewBox="0 0 116930 82680 ">
<title>SVG Picture created as 1206_led_satellite_board-rev_1.0-B.SilkS.svg date 2018/12/11 22:04:26 </title>
  <desc>Picture generated by PCBNEW </desc>
<g style="fill:#000000; fill-opacity:1;stroke:#000000; stroke-opacity:1;
stroke-linecap:round; stroke-linejoin:round; "
 transform="translate(0 0) scale(1 1)">
</g>
<g style="fill:#000000; fill-opacity:0.0; 
stroke:#000000; stroke-width:-0.000393701; stroke-opacity:1; 
stroke-linecap:round; stroke-linejoin:round;">
</g>
<g style="fill:#000000; fill-opacity:0.0; 
stroke:#000000; stroke-width:47.2441; stroke-opacity:1; 
stroke-linecap:round; stroke-linejoin:round;">
<path d="M16841 7341
L15312 7341
" />
<path d="M15312 7341
L15312 6447
" />
<path d="M15312 6447
L16841 6447
" />
<path d="M15312 7388
L16841 7388
" />
<path d="M15312 8282
L15312 7388
" />
<path d="M16841 8282
L15312 8282
" />
<path d="M16841 9223
L15312 9223
" />
<path d="M15312 9223
L15312 8329
" />
<path d="M15312 8329
L16841 8329
" />
<path d="M14393 8328
L13606 8328
" />
<path d="M13606 9171
L14393 9171
" />
</g>
<g style="fill:#000000; fill-opacity:0.0; 
stroke:#000000; stroke-width:59.0551; stroke-opacity:1; 
stroke-linecap:round; stroke-linejoin:round;">
<path d="M15054 6871
L15054 6477
L14960 6477
L14904 6496
L14866 6533
L14848 6571
L14829 6646
L14829 6702
L14848 6777
L14866 6814
L14904 6852
L14960 6871
L15054 6871
" />
<path d="M14454 6871
L14679 6871
" />
<path d="M14566 6871
L14566 6477
L14604 6533
L14641 6571
L14679 6589
" />
<path d="M15054 7461
L15054 7067
L14960 7067
L14904 7086
L14866 7124
L14848 7161
L14829 7236
L14829 7292
L14848 7367
L14866 7405
L14904 7442
L14960 7461
L15054 7461
" />
<path d="M14679 7105
L14660 7086
L14623 7067
L14529 7067
L14491 7086
L14473 7105
L14454 7142
L14454 7180
L14473 7236
L14698 7461
L14454 7461
" />
<path d="M15054 8052
L15054 7658
L14960 7658
L14904 7677
L14866 7714
L14848 7752
L14829 7827
L14829 7883
L14848 7958
L14866 7995
L14904 8033
L14960 8052
L15054 8052
" />
<path d="M14698 7658
L14454 7658
L14585 7808
L14529 7808
L14491 7827
L14473 7845
L14454 7883
L14454 7977
L14473 8014
L14491 8033
L14529 8052
L14641 8052
L14679 8033
L14698 8014
" />
<path d="M13648 8052
L13779 7864
" />
<path d="M13873 8052
L13873 7658
L13723 7658
L13685 7677
L13667 7695
L13648 7733
L13648 7789
L13667 7827
L13685 7845
L13723 7864
L13873 7864
" />
<path d="M13273 8052
L13498 8052
" />
<path d="M13385 8052
L13385 7658
L13423 7714
L13460 7752
L13498 7770
" />
</g> 
</svg>
