<?xml version="1.0" standalone="no"?>
 <!DOCTYPE svg PUBLIC "-//W3C//DTD SVG 1.1//EN" 
 "http://www.w3.org/Graphics/SVG/1.1/DTD/svg11.dtd"> 
<svg xmlns="http://www.w3.org/2000/svg" version="1.1" 
    width="29.7002cm" height="21.0007cm" viewBox="0 0 116930 82680 ">
<title>SVG Picture created as 1206_led_satellite_board-rev_1.0-F.Cu.svg date 2018/12/11 22:04:26 </title>
  <desc>Picture generated by PCBNEW </desc>
<g style="fill:#000000; fill-opacity:1;stroke:#000000; stroke-opacity:1;
stroke-linecap:round; stroke-linejoin:round; "
 transform="translate(0 0) scale(1 1)">
</g>
<g style="fill:#000000; fill-opacity:0.0; 
stroke:#000000; stroke-width:-0.000393701; stroke-opacity:1; 
stroke-linecap:round; stroke-linejoin:round;">
</g>
<g style="fill:#000000; fill-opacity:1.0; 
stroke:#000000; stroke-width:0; stroke-opacity:1; 
stroke-linecap:round; stroke-linejoin:round;">
<circle cx="11000" cy="8366.14" r="344.488" /> 
</g>
<g style="fill:#000000; fill-opacity:1.0; 
stroke:#000000; stroke-width:39.3701; stroke-opacity:1; 
stroke-linecap:round; stroke-linejoin:round;">
</g>
<g style="fill:#000000; fill-opacity:1.0; 
stroke:#000000; stroke-width:0; stroke-opacity:1; 
stroke-linecap:round; stroke-linejoin:round;">
<polyline style="fill-rule:evenodd;"
points="10655,7037
11344,7037
11344,7726
10655,7726
10655,7037
" /> 
<circle cx="7874.02" cy="7874.02" r="1102.36" /> 
</g>
<g style="fill:#000000; fill-opacity:1.0; 
stroke:#000000; stroke-width:39.3701; stroke-opacity:1; 
stroke-linecap:round; stroke-linejoin:round;">
</g>
<g style="fill:#000000; fill-opacity:1.0; 
stroke:#000000; stroke-width:0; stroke-opacity:1; 
stroke-linecap:round; stroke-linejoin:round;">
<circle cx="12795.3" cy="8750" r="157.48" /> 
</g>
<g style="fill:#000000; fill-opacity:1.0; 
stroke:#000000; stroke-width:39.3701; stroke-opacity:1; 
stroke-linecap:round; stroke-linejoin:round;">
</g>
<g style="fill:#000000; fill-opacity:1.0; 
stroke:#000000; stroke-width:196.85; stroke-opacity:1; 
stroke-linecap:round; stroke-linejoin:round;">
</g>
<g style="fill:#000000; fill-opacity:0.0; 
stroke:#000000; stroke-width:196.85; stroke-opacity:1; 
stroke-linecap:round; stroke-linejoin:round;">
<path d="M11383 8750
L11000 8366
" />
<path d="M12795 8750
L11383 8750
" />
</g>
<g style="fill:#000000; fill-opacity:1.0; 
stroke:#000000; stroke-width:100; stroke-opacity:1; 
stroke-linecap:round; stroke-linejoin:round;">
<polyline style="fill-rule:evenodd;"
points="17437,9562
6185,9562
6185,8138
6520,8138
6521,8140
6521,8143
6623,8389
6725,8636
6727,8640
6727,8640
6727,8640
6729,8643
6733,8646
7101,9014
7104,9018
7106,9019
7107,9020
7354,9122
7600,9225
7603,9225
7605,9226
7871,9226
8138,9227
8140,9226
8143,9226
8389,9124
8636,9022
8640,9020
8640,9020
8640,9020
8643,9018
8646,9014
9014,8646
9018,8643
9019,8641
9020,8640
9122,8393
9225,8147
9225,8144
9226,8143
9226,7876
9227,7609
9226,7607
9226,7605
9124,7358
9022,7111
9020,7107
9020,7107
9020,7107
9018,7104
9014,7101
8949,7037
10400,7037
10400,7726
10420,7823
10475,7906
10557,7961
10562,7962
10496,8029
10405,8247
10405,8484
10496,8702
10663,8870
10881,8960
11101,8960
11113,8972
11132,9001
11161,9020
11161,9020
11205,9049
11247,9078
11349,9098
11349,9098
11383,9105
11418,9098
12571,9098
12714,9157
12876,9157
13026,9095
13140,8980
13202,8831
13202,8668
13140,8519
13026,8404
12876,8342
12714,8342
12571,8401
11594,8401
11594,8247
11503,8029
11437,7962
11442,7961
11524,7906
11579,7823
11599,7726
11599,7037
11579,6939
11524,6857
11442,6801
11344,6782
10655,6782
10557,6801
10475,6857
10420,6939
10400,7037
8949,7037
8646,6733
8643,6729
8641,6729
8640,6727
8393,6625
8147,6522
8144,6522
8143,6521
7876,6521
7609,6520
7607,6521
7605,6521
7358,6623
7111,6725
7107,6727
7107,6727
7107,6727
7104,6729
7101,6733
6733,7101
6729,7104
6729,7106
6727,7107
6625,7354
6522,7600
6522,7603
6521,7605
6521,7871
6520,8138
6185,8138
6185,6185
17437,6185
17437,9562
" /> 
</g> 
</svg>
