<?xml version="1.0" standalone="no"?>
 <!DOCTYPE svg PUBLIC "-//W3C//DTD SVG 1.1//EN" 
 "http://www.w3.org/Graphics/SVG/1.1/DTD/svg11.dtd"> 
<svg xmlns="http://www.w3.org/2000/svg" version="1.1" 
    width="29.7002cm" height="21.0007cm" viewBox="0 0 116930 82680 ">
<title>SVG Picture created as 1206_led_satellite_board-rev_1.0.svg date 2018/12/11 22:16:11 </title>
  <desc>Picture generated by Eeschema-SVG </desc>
<g style="fill:#000000; fill-opacity:1;stroke:#000000; stroke-opacity:1;
stroke-linecap:round; stroke-linejoin:round; "
 transform="translate(0 0) scale(1 1)">
</g>
<g style="fill:#000000; fill-opacity:0.0; 
stroke:#000000; stroke-width:-10; stroke-opacity:1; 
stroke-linecap:round; stroke-linejoin:round;">
</g>
<g style="fill:#840000; fill-opacity:0.0; 
stroke:#840000; stroke-width:-10; stroke-opacity:1; 
stroke-linecap:round; stroke-linejoin:round;">
</g>
<g style="fill:#840000; fill-opacity:0.0; 
stroke:#840000; stroke-width:100; stroke-opacity:1; 
stroke-linecap:round; stroke-linejoin:round;">
</g>
<g style="fill:#840000; fill-opacity:0.0; 
stroke:#840000; stroke-width:60; stroke-opacity:1; 
stroke-linecap:round; stroke-linejoin:round;">
<rect x="69690" y="65360" width="42520" height="12600" rx="0" />
</g>
<g style="fill:#840000; fill-opacity:0.0; 
stroke:#840000; stroke-width:100; stroke-opacity:1; 
stroke-linecap:round; stroke-linejoin:round;">
</g>
<g style="fill:#840000; fill-opacity:0.0; 
stroke:#840000; stroke-width:60; stroke-opacity:1; 
stroke-linecap:round; stroke-linejoin:round;">
<rect x="3940" y="3940" width="109050" height="74800" rx="0" />
</g>
<g style="fill:#840000; fill-opacity:0.0; 
stroke:#840000; stroke-width:100; stroke-opacity:1; 
stroke-linecap:round; stroke-linejoin:round;">
</g>
<g style="fill:#840000; fill-opacity:0.0; 
stroke:#840000; stroke-width:60; stroke-opacity:1; 
stroke-linecap:round; stroke-linejoin:round;">
<rect x="4720" y="4720" width="107490" height="73240" rx="0" />
</g>
<g style="fill:#840000; fill-opacity:0.0; 
stroke:#840000; stroke-width:100; stroke-opacity:1; 
stroke-linecap:round; stroke-linejoin:round;">
</g>
<g style="fill:#840000; fill-opacity:0.0; 
stroke:#840000; stroke-width:60; stroke-opacity:1; 
stroke-linecap:round; stroke-linejoin:round;">
<path d="M23620 4720
L23620 3940
" />
</g>
<g style="fill:#840000; fill-opacity:0.0; 
stroke:#840000; stroke-width:100; stroke-opacity:1; 
stroke-linecap:round; stroke-linejoin:round;">
</g>
<g style="fill:#840000; fill-opacity:0.0; 
stroke:#840000; stroke-width:60; stroke-opacity:1; 
stroke-linecap:round; stroke-linejoin:round;">
<path d="M43310 4720
L43310 3940
" />
</g>
<g style="fill:#840000; fill-opacity:0.0; 
stroke:#840000; stroke-width:100; stroke-opacity:1; 
stroke-linecap:round; stroke-linejoin:round;">
</g>
<g style="fill:#840000; fill-opacity:0.0; 
stroke:#840000; stroke-width:60; stroke-opacity:1; 
stroke-linecap:round; stroke-linejoin:round;">
<path d="M62990 4720
L62990 3940
" />
</g>
<g style="fill:#840000; fill-opacity:0.0; 
stroke:#840000; stroke-width:100; stroke-opacity:1; 
stroke-linecap:round; stroke-linejoin:round;">
</g>
<g style="fill:#840000; fill-opacity:0.0; 
stroke:#840000; stroke-width:60; stroke-opacity:1; 
stroke-linecap:round; stroke-linejoin:round;">
<path d="M82680 4720
L82680 3940
" />
</g>
<g style="fill:#840000; fill-opacity:0.0; 
stroke:#840000; stroke-width:100; stroke-opacity:1; 
stroke-linecap:round; stroke-linejoin:round;">
</g>
<g style="fill:#840000; fill-opacity:0.0; 
stroke:#840000; stroke-width:60; stroke-opacity:1; 
stroke-linecap:round; stroke-linejoin:round;">
<path d="M102360 4720
L102360 3940
" />
</g>
<g style="fill:#840000; fill-opacity:0.0; 
stroke:#840000; stroke-width:100; stroke-opacity:1; 
stroke-linecap:round; stroke-linejoin:round;">
</g>
<g style="fill:#840000; fill-opacity:0.0; 
stroke:#840000; stroke-width:60; stroke-opacity:1; 
stroke-linecap:round; stroke-linejoin:round;">
<path d="M14190 4560
L13900 4560
" />
<path d="M14050 4560
L14050 4050
L14000 4120
L13950 4170
L13900 4190
" />
</g>
<g style="fill:#840000; fill-opacity:0.0; 
stroke:#840000; stroke-width:100; stroke-opacity:1; 
stroke-linecap:round; stroke-linejoin:round;">
</g>
<g style="fill:#840000; fill-opacity:0.0; 
stroke:#840000; stroke-width:60; stroke-opacity:1; 
stroke-linecap:round; stroke-linejoin:round;">
<path d="M33580 4090
L33610 4070
L33660 4050
L33780 4050
L33830 4070
L33850 4090
L33870 4140
L33870 4190
L33850 4260
L33560 4560
L33870 4560
" />
</g>
<g style="fill:#840000; fill-opacity:0.0; 
stroke:#840000; stroke-width:100; stroke-opacity:1; 
stroke-linecap:round; stroke-linejoin:round;">
</g>
<g style="fill:#840000; fill-opacity:0.0; 
stroke:#840000; stroke-width:60; stroke-opacity:1; 
stroke-linecap:round; stroke-linejoin:round;">
<path d="M53250 4050
L53560 4050
L53390 4240
L53470 4240
L53520 4260
L53540 4290
L53560 4340
L53560 4460
L53540 4510
L53520 4530
L53470 4560
L53320 4560
L53270 4530
L53250 4510
" />
</g>
<g style="fill:#840000; fill-opacity:0.0; 
stroke:#840000; stroke-width:100; stroke-opacity:1; 
stroke-linecap:round; stroke-linejoin:round;">
</g>
<g style="fill:#840000; fill-opacity:0.0; 
stroke:#840000; stroke-width:60; stroke-opacity:1; 
stroke-linecap:round; stroke-linejoin:round;">
<path d="M73200 4220
L73200 4560
" />
<path d="M73070 4020
L72950 4390
L73270 4390
" />
</g>
<g style="fill:#840000; fill-opacity:0.0; 
stroke:#840000; stroke-width:100; stroke-opacity:1; 
stroke-linecap:round; stroke-linejoin:round;">
</g>
<g style="fill:#840000; fill-opacity:0.0; 
stroke:#840000; stroke-width:60; stroke-opacity:1; 
stroke-linecap:round; stroke-linejoin:round;">
<path d="M92910 4050
L92670 4050
L92640 4290
L92670 4260
L92720 4240
L92840 4240
L92890 4260
L92910 4290
L92930 4340
L92930 4460
L92910 4510
L92890 4530
L92840 4560
L92720 4560
L92670 4530
L92640 4510
" />
</g>
<g style="fill:#840000; fill-opacity:0.0; 
stroke:#840000; stroke-width:100; stroke-opacity:1; 
stroke-linecap:round; stroke-linejoin:round;">
</g>
<g style="fill:#840000; fill-opacity:0.0; 
stroke:#840000; stroke-width:60; stroke-opacity:1; 
stroke-linecap:round; stroke-linejoin:round;">
<path d="M112570 4050
L112470 4050
L112420 4070
L112400 4090
L112350 4170
L112320 4260
L112320 4460
L112350 4510
L112370 4530
L112420 4560
L112520 4560
L112570 4530
L112590 4510
L112610 4460
L112610 4340
L112590 4290
L112570 4260
L112520 4240
L112420 4240
L112370 4260
L112350 4290
L112320 4340
" />
</g>
<g style="fill:#840000; fill-opacity:0.0; 
stroke:#840000; stroke-width:100; stroke-opacity:1; 
stroke-linecap:round; stroke-linejoin:round;">
</g>
<g style="fill:#840000; fill-opacity:0.0; 
stroke:#840000; stroke-width:60; stroke-opacity:1; 
stroke-linecap:round; stroke-linejoin:round;">
<path d="M23620 77960
L23620 78740
" />
</g>
<g style="fill:#840000; fill-opacity:0.0; 
stroke:#840000; stroke-width:100; stroke-opacity:1; 
stroke-linecap:round; stroke-linejoin:round;">
</g>
<g style="fill:#840000; fill-opacity:0.0; 
stroke:#840000; stroke-width:60; stroke-opacity:1; 
stroke-linecap:round; stroke-linejoin:round;">
<path d="M43310 77960
L43310 78740
" />
</g>
<g style="fill:#840000; fill-opacity:0.0; 
stroke:#840000; stroke-width:100; stroke-opacity:1; 
stroke-linecap:round; stroke-linejoin:round;">
</g>
<g style="fill:#840000; fill-opacity:0.0; 
stroke:#840000; stroke-width:60; stroke-opacity:1; 
stroke-linecap:round; stroke-linejoin:round;">
<path d="M62990 77960
L62990 78740
" />
</g>
<g style="fill:#840000; fill-opacity:0.0; 
stroke:#840000; stroke-width:100; stroke-opacity:1; 
stroke-linecap:round; stroke-linejoin:round;">
</g>
<g style="fill:#840000; fill-opacity:0.0; 
stroke:#840000; stroke-width:60; stroke-opacity:1; 
stroke-linecap:round; stroke-linejoin:round;">
<path d="M82680 77960
L82680 78740
" />
</g>
<g style="fill:#840000; fill-opacity:0.0; 
stroke:#840000; stroke-width:100; stroke-opacity:1; 
stroke-linecap:round; stroke-linejoin:round;">
</g>
<g style="fill:#840000; fill-opacity:0.0; 
stroke:#840000; stroke-width:60; stroke-opacity:1; 
stroke-linecap:round; stroke-linejoin:round;">
<path d="M102360 77960
L102360 78740
" />
</g>
<g style="fill:#840000; fill-opacity:0.0; 
stroke:#840000; stroke-width:100; stroke-opacity:1; 
stroke-linecap:round; stroke-linejoin:round;">
</g>
<g style="fill:#840000; fill-opacity:0.0; 
stroke:#840000; stroke-width:60; stroke-opacity:1; 
stroke-linecap:round; stroke-linejoin:round;">
<path d="M14190 78580
L13900 78580
" />
<path d="M14050 78580
L14050 78070
L14000 78140
L13950 78190
L13900 78210
" />
</g>
<g style="fill:#840000; fill-opacity:0.0; 
stroke:#840000; stroke-width:100; stroke-opacity:1; 
stroke-linecap:round; stroke-linejoin:round;">
</g>
<g style="fill:#840000; fill-opacity:0.0; 
stroke:#840000; stroke-width:60; stroke-opacity:1; 
stroke-linecap:round; stroke-linejoin:round;">
<path d="M33580 78110
L33610 78090
L33660 78070
L33780 78070
L33830 78090
L33850 78110
L33870 78160
L33870 78210
L33850 78280
L33560 78580
L33870 78580
" />
</g>
<g style="fill:#840000; fill-opacity:0.0; 
stroke:#840000; stroke-width:100; stroke-opacity:1; 
stroke-linecap:round; stroke-linejoin:round;">
</g>
<g style="fill:#840000; fill-opacity:0.0; 
stroke:#840000; stroke-width:60; stroke-opacity:1; 
stroke-linecap:round; stroke-linejoin:round;">
<path d="M53250 78070
L53560 78070
L53390 78260
L53470 78260
L53520 78280
L53540 78310
L53560 78360
L53560 78480
L53540 78530
L53520 78550
L53470 78580
L53320 78580
L53270 78550
L53250 78530
" />
</g>
<g style="fill:#840000; fill-opacity:0.0; 
stroke:#840000; stroke-width:100; stroke-opacity:1; 
stroke-linecap:round; stroke-linejoin:round;">
</g>
<g style="fill:#840000; fill-opacity:0.0; 
stroke:#840000; stroke-width:60; stroke-opacity:1; 
stroke-linecap:round; stroke-linejoin:round;">
<path d="M73200 78240
L73200 78580
" />
<path d="M73070 78040
L72950 78410
L73270 78410
" />
</g>
<g style="fill:#840000; fill-opacity:0.0; 
stroke:#840000; stroke-width:100; stroke-opacity:1; 
stroke-linecap:round; stroke-linejoin:round;">
</g>
<g style="fill:#840000; fill-opacity:0.0; 
stroke:#840000; stroke-width:60; stroke-opacity:1; 
stroke-linecap:round; stroke-linejoin:round;">
<path d="M92910 78070
L92670 78070
L92640 78310
L92670 78280
L92720 78260
L92840 78260
L92890 78280
L92910 78310
L92930 78360
L92930 78480
L92910 78530
L92890 78550
L92840 78580
L92720 78580
L92670 78550
L92640 78530
" />
</g>
<g style="fill:#840000; fill-opacity:0.0; 
stroke:#840000; stroke-width:100; stroke-opacity:1; 
stroke-linecap:round; stroke-linejoin:round;">
</g>
<g style="fill:#840000; fill-opacity:0.0; 
stroke:#840000; stroke-width:60; stroke-opacity:1; 
stroke-linecap:round; stroke-linejoin:round;">
<path d="M112570 78070
L112470 78070
L112420 78090
L112400 78110
L112350 78190
L112320 78280
L112320 78480
L112350 78530
L112370 78550
L112420 78580
L112520 78580
L112570 78550
L112590 78530
L112610 78480
L112610 78360
L112590 78310
L112570 78280
L112520 78260
L112420 78260
L112370 78280
L112350 78310
L112320 78360
" />
</g>
<g style="fill:#840000; fill-opacity:0.0; 
stroke:#840000; stroke-width:100; stroke-opacity:1; 
stroke-linecap:round; stroke-linejoin:round;">
</g>
<g style="fill:#840000; fill-opacity:0.0; 
stroke:#840000; stroke-width:60; stroke-opacity:1; 
stroke-linecap:round; stroke-linejoin:round;">
<path d="M3940 23620
L4720 23620
" />
</g>
<g style="fill:#840000; fill-opacity:0.0; 
stroke:#840000; stroke-width:100; stroke-opacity:1; 
stroke-linecap:round; stroke-linejoin:round;">
</g>
<g style="fill:#840000; fill-opacity:0.0; 
stroke:#840000; stroke-width:60; stroke-opacity:1; 
stroke-linecap:round; stroke-linejoin:round;">
<path d="M3940 43310
L4720 43310
" />
</g>
<g style="fill:#840000; fill-opacity:0.0; 
stroke:#840000; stroke-width:100; stroke-opacity:1; 
stroke-linecap:round; stroke-linejoin:round;">
</g>
<g style="fill:#840000; fill-opacity:0.0; 
stroke:#840000; stroke-width:60; stroke-opacity:1; 
stroke-linecap:round; stroke-linejoin:round;">
<path d="M3940 62990
L4720 62990
" />
</g>
<g style="fill:#840000; fill-opacity:0.0; 
stroke:#840000; stroke-width:100; stroke-opacity:1; 
stroke-linecap:round; stroke-linejoin:round;">
</g>
<g style="fill:#840000; fill-opacity:0.0; 
stroke:#840000; stroke-width:60; stroke-opacity:1; 
stroke-linecap:round; stroke-linejoin:round;">
<path d="M4200 13860
L4450 13860
" />
<path d="M4160 14010
L4330 13500
L4500 14010
" />
</g>
<g style="fill:#840000; fill-opacity:0.0; 
stroke:#840000; stroke-width:100; stroke-opacity:1; 
stroke-linecap:round; stroke-linejoin:round;">
</g>
<g style="fill:#840000; fill-opacity:0.0; 
stroke:#840000; stroke-width:60; stroke-opacity:1; 
stroke-linecap:round; stroke-linejoin:round;">
<path d="M4360 33420
L4430 33440
L4460 33470
L4480 33520
L4480 33590
L4460 33640
L4430 33660
L4390 33690
L4190 33690
L4190 33180
L4360 33180
L4410 33200
L4430 33220
L4460 33270
L4460 33320
L4430 33370
L4410 33390
L4360 33420
L4190 33420
" />
</g>
<g style="fill:#840000; fill-opacity:0.0; 
stroke:#840000; stroke-width:100; stroke-opacity:1; 
stroke-linecap:round; stroke-linejoin:round;">
</g>
<g style="fill:#840000; fill-opacity:0.0; 
stroke:#840000; stroke-width:60; stroke-opacity:1; 
stroke-linecap:round; stroke-linejoin:round;">
<path d="M4480 53330
L4460 53350
L4390 53380
L4340 53380
L4260 53350
L4220 53300
L4190 53250
L4170 53160
L4170 53080
L4190 52990
L4220 52940
L4260 52890
L4340 52870
L4390 52870
L4460 52890
L4480 52910
" />
</g>
<g style="fill:#840000; fill-opacity:0.0; 
stroke:#840000; stroke-width:100; stroke-opacity:1; 
stroke-linecap:round; stroke-linejoin:round;">
</g>
<g style="fill:#840000; fill-opacity:0.0; 
stroke:#840000; stroke-width:60; stroke-opacity:1; 
stroke-linecap:round; stroke-linejoin:round;">
<path d="M4190 73060
L4190 72550
L4310 72550
L4390 72570
L4430 72620
L4460 72670
L4480 72760
L4480 72840
L4460 72930
L4430 72980
L4390 73030
L4310 73060
L4190 73060
" />
</g>
<g style="fill:#840000; fill-opacity:0.0; 
stroke:#840000; stroke-width:100; stroke-opacity:1; 
stroke-linecap:round; stroke-linejoin:round;">
</g>
<g style="fill:#840000; fill-opacity:0.0; 
stroke:#840000; stroke-width:60; stroke-opacity:1; 
stroke-linecap:round; stroke-linejoin:round;">
<path d="M112990 23620
L112210 23620
" />
</g>
<g style="fill:#840000; fill-opacity:0.0; 
stroke:#840000; stroke-width:100; stroke-opacity:1; 
stroke-linecap:round; stroke-linejoin:round;">
</g>
<g style="fill:#840000; fill-opacity:0.0; 
stroke:#840000; stroke-width:60; stroke-opacity:1; 
stroke-linecap:round; stroke-linejoin:round;">
<path d="M112990 43310
L112210 43310
" />
</g>
<g style="fill:#840000; fill-opacity:0.0; 
stroke:#840000; stroke-width:100; stroke-opacity:1; 
stroke-linecap:round; stroke-linejoin:round;">
</g>
<g style="fill:#840000; fill-opacity:0.0; 
stroke:#840000; stroke-width:60; stroke-opacity:1; 
stroke-linecap:round; stroke-linejoin:round;">
<path d="M112990 62990
L112210 62990
" />
</g>
<g style="fill:#840000; fill-opacity:0.0; 
stroke:#840000; stroke-width:100; stroke-opacity:1; 
stroke-linecap:round; stroke-linejoin:round;">
</g>
<g style="fill:#840000; fill-opacity:0.0; 
stroke:#840000; stroke-width:60; stroke-opacity:1; 
stroke-linecap:round; stroke-linejoin:round;">
<path d="M112470 13860
L112720 13860
" />
<path d="M112430 14010
L112600 13500
L112770 14010
" />
</g>
<g style="fill:#840000; fill-opacity:0.0; 
stroke:#840000; stroke-width:100; stroke-opacity:1; 
stroke-linecap:round; stroke-linejoin:round;">
</g>
<g style="fill:#840000; fill-opacity:0.0; 
stroke:#840000; stroke-width:60; stroke-opacity:1; 
stroke-linecap:round; stroke-linejoin:round;">
<path d="M112630 33420
L112700 33440
L112730 33470
L112750 33520
L112750 33590
L112730 33640
L112700 33660
L112660 33690
L112460 33690
L112460 33180
L112630 33180
L112680 33200
L112700 33220
L112730 33270
L112730 33320
L112700 33370
L112680 33390
L112630 33420
L112460 33420
" />
</g>
<g style="fill:#840000; fill-opacity:0.0; 
stroke:#840000; stroke-width:100; stroke-opacity:1; 
stroke-linecap:round; stroke-linejoin:round;">
</g>
<g style="fill:#840000; fill-opacity:0.0; 
stroke:#840000; stroke-width:60; stroke-opacity:1; 
stroke-linecap:round; stroke-linejoin:round;">
<path d="M112750 53330
L112730 53350
L112660 53380
L112610 53380
L112530 53350
L112490 53300
L112460 53250
L112440 53160
L112440 53080
L112460 52990
L112490 52940
L112530 52890
L112610 52870
L112660 52870
L112730 52890
L112750 52910
" />
</g>
<g style="fill:#840000; fill-opacity:0.0; 
stroke:#840000; stroke-width:100; stroke-opacity:1; 
stroke-linecap:round; stroke-linejoin:round;">
</g>
<g style="fill:#840000; fill-opacity:0.0; 
stroke:#840000; stroke-width:60; stroke-opacity:1; 
stroke-linecap:round; stroke-linejoin:round;">
<path d="M112460 73060
L112460 72550
L112580 72550
L112660 72570
L112700 72620
L112730 72670
L112750 72760
L112750 72840
L112730 72930
L112700 72980
L112660 73030
L112580 73060
L112460 73060
" />
</g>
<g style="fill:#840000; fill-opacity:0.0; 
stroke:#840000; stroke-width:100; stroke-opacity:1; 
stroke-linecap:round; stroke-linejoin:round;">
</g>
<g style="fill:#840000; fill-opacity:0.0; 
stroke:#840000; stroke-width:60; stroke-opacity:1; 
stroke-linecap:round; stroke-linejoin:round;">
<path d="M78910 76290
L78910 75700
L79050 75700
L79130 75730
L79190 75790
L79210 75840
L79240 75950
L79240 76040
L79210 76150
L79190 76210
L79130 76260
L79050 76290
L78910 76290
" />
<path d="M79750 76290
L79750 75980
L79720 75930
L79660 75900
L79550 75900
L79500 75930
" />
<path d="M79750 76260
L79690 76290
L79550 76290
L79500 76260
L79470 76210
L79470 76150
L79500 76100
L79550 76070
L79690 76070
L79750 76040
" />
<path d="M79950 75900
L80170 75900
" />
<path d="M80030 75700
L80030 76210
L80060 76260
L80110 76290
L80170 76290
" />
<path d="M80590 76260
L80540 76290
L80420 76290
L80370 76260
L80340 76210
L80340 75980
L80370 75930
L80420 75900
L80540 75900
L80590 75930
L80620 75980
L80620 76040
L80340 76100
" />
<path d="M80870 76240
L80900 76260
L80870 76290
L80840 76260
L80870 76240
L80870 76290
" />
<path d="M80870 75930
L80900 75950
L80870 75980
L80840 75950
L80870 75930
L80870 75980
" />
<path d="M81570 75760
L81600 75730
L81660 75700
L81800 75700
L81860 75730
L81880 75760
L81910 75810
L81910 75870
L81880 75950
L81550 76290
L81910 76290
" />
<path d="M82280 75700
L82330 75700
L82390 75730
L82420 75760
L82450 75810
L82470 75930
L82470 76070
L82450 76180
L82420 76240
L82390 76260
L82330 76290
L82280 76290
L82220 76260
L82190 76240
L82160 76180
L82140 76070
L82140 75930
L82160 75810
L82190 75760
L82220 75730
L82280 75700
" />
<path d="M83040 76290
L82700 76290
" />
<path d="M82870 76290
L82870 75700
L82810 75790
L82750 75840
L82700 75870
" />
<path d="M83370 75950
L83320 75930
L83290 75900
L83260 75840
L83260 75810
L83290 75760
L83320 75730
L83370 75700
L83490 75700
L83540 75730
L83570 75760
L83600 75810
L83600 75840
L83570 75900
L83540 75930
L83490 75950
L83370 75950
L83320 75980
L83290 76010
L83260 76070
L83260 76180
L83290 76240
L83320 76260
L83370 76290
L83490 76290
L83540 76260
L83570 76240
L83600 76180
L83600 76070
L83570 76010
L83540 75980
L83490 75950
" />
<path d="M83850 76070
L84300 76070
" />
<path d="M84690 75700
L84750 75700
L84810 75730
L84830 75760
L84860 75810
L84890 75930
L84890 76070
L84860 76180
L84830 76240
L84810 76260
L84750 76290
L84690 76290
L84640 76260
L84610 76240
L84580 76180
L84550 76070
L84550 75930
L84580 75810
L84610 75760
L84640 75730
L84690 75700
" />
<path d="M85230 75950
L85170 75930
L85140 75900
L85110 75840
L85110 75810
L85140 75760
L85170 75730
L85230 75700
L85340 75700
L85400 75730
L85420 75760
L85450 75810
L85450 75840
L85420 75900
L85400 75930
L85340 75950
L85230 75950
L85170 75980
L85140 76010
L85110 76070
L85110 76180
L85140 76240
L85170 76260
L85230 76290
L85340 76290
L85400 76260
L85420 76240
L85450 76180
L85450 76070
L85420 76010
L85400 75980
L85340 75950
" />
<path d="M85700 76070
L86150 76070
" />
<path d="M86740 76290
L86410 76290
" />
<path d="M86580 76290
L86580 75700
L86520 75790
L86460 75840
L86410 75870
" />
<path d="M87080 75950
L87030 75930
L87000 75900
L86970 75840
L86970 75810
L87000 75760
L87030 75730
L87080 75700
L87190 75700
L87250 75730
L87280 75760
L87310 75810
L87310 75840
L87280 75900
L87250 75930
L87190 75950
L87080 75950
L87030 75980
L87000 76010
L86970 76070
L86970 76180
L87000 76240
L87030 76260
L87080 76290
L87190 76290
L87250 76260
L87280 76240
L87310 76180
L87310 76070
L87280 76010
L87250 75980
L87190 75950
" />
</g>
<g style="fill:#840000; fill-opacity:0.0; 
stroke:#840000; stroke-width:100; stroke-opacity:1; 
stroke-linecap:round; stroke-linejoin:round;">
</g>
<g style="fill:#840000; fill-opacity:0.0; 
stroke:#840000; stroke-width:60; stroke-opacity:1; 
stroke-linecap:round; stroke-linejoin:round;">
<path d="M69690 76580
L112210 76580
" />
</g>
<g style="fill:#840000; fill-opacity:0.0; 
stroke:#840000; stroke-width:100; stroke-opacity:1; 
stroke-linecap:round; stroke-linejoin:round;">
</g>
<g style="fill:#840000; fill-opacity:0.0; 
stroke:#840000; stroke-width:60; stroke-opacity:1; 
stroke-linecap:round; stroke-linejoin:round;">
<path d="M70250 77390
L70250 76800
" />
<path d="M70580 77390
L70330 77050
" />
<path d="M70580 76800
L70250 77140
" />
<path d="M70840 77390
L70840 77000
" />
<path d="M70840 76800
L70810 76830
L70840 76860
L70860 76830
L70840 76800
L70840 76860
" />
<path d="M71450 77340
L71430 77360
L71340 77390
L71290 77390
L71200 77360
L71140 77310
L71120 77250
L71090 77140
L71090 77050
L71120 76940
L71140 76890
L71200 76830
L71290 76800
L71340 76800
L71430 76830
L71450 76860
" />
<path d="M71960 77390
L71960 77080
L71930 77030
L71880 77000
L71760 77000
L71710 77030
" />
<path d="M71960 77360
L71900 77390
L71760 77390
L71710 77360
L71680 77310
L71680 77250
L71710 77200
L71760 77170
L71900 77170
L71960 77140
" />
<path d="M72490 77390
L72490 76800
" />
<path d="M72490 77360
L72440 77390
L72320 77390
L72270 77360
L72240 77340
L72210 77280
L72210 77110
L72240 77050
L72270 77030
L72320 77000
L72440 77000
L72490 77030
" />
<path d="M73220 77080
L73420 77080
" />
<path d="M73500 77390
L73220 77390
L73220 76800
L73500 76800
" />
<path d="M73760 77340
L73790 77360
L73760 77390
L73730 77360
L73760 77340
L73760 77390
" />
<path d="M74040 77390
L74040 76800
L74180 76800
L74260 76830
L74320 76890
L74350 76940
L74380 77050
L74380 77140
L74350 77250
L74320 77310
L74260 77360
L74180 77390
L74040 77390
" />
<path d="M74630 77340
L74660 77360
L74630 77390
L74600 77360
L74630 77340
L74630 77390
" />
<path d="M74880 77220
L75160 77220
" />
<path d="M74830 77390
L75020 76800
L75220 77390
" />
<path d="M75420 77340
L75440 77360
L75420 77390
L75390 77360
L75420 77340
L75420 77390
" />
<path d="M76600 77390
L76600 76800
" />
<path d="M76650 77170
L76820 77390
" />
<path d="M76820 77000
L76600 77220
" />
<path d="M77070 77390
L77070 77000
" />
<path d="M77070 76800
L77040 76830
L77070 76860
L77100 76830
L77070 76800
L77070 76860
" />
<path d="M77610 77360
L77550 77390
L77440 77390
L77380 77360
L77350 77340
L77330 77280
L77330 77110
L77350 77050
L77380 77030
L77440 77000
L77550 77000
L77610 77030
" />
<path d="M78110 77390
L78110 77080
L78080 77030
L78030 77000
L77920 77000
L77860 77030
" />
<path d="M78110 77360
L78060 77390
L77920 77390
L77860 77360
L77830 77310
L77830 77250
L77860 77200
L77920 77170
L78060 77170
L78110 77140
" />
<path d="M78650 77390
L78650 76800
" />
<path d="M78650 77360
L78590 77390
L78480 77390
L78420 77360
L78390 77340
L78370 77280
L78370 77110
L78390 77050
L78420 77030
L78480 77000
L78590 77000
L78650 77030
" />
<path d="M79550 77620
L79520 77590
L79460 77500
L79430 77450
L79400 77360
L79380 77220
L79380 77110
L79400 76970
L79430 76890
L79460 76830
L79520 76750
L79550 76720
" />
<path d="M80050 76800
L79770 76800
L79740 77080
L79770 77050
L79830 77030
L79970 77030
L80020 77050
L80050 77080
L80080 77140
L80080 77280
L80050 77340
L80020 77360
L79970 77390
L79830 77390
L79770 77360
L79740 77340
" />
<path d="M80330 77340
L80360 77360
L80330 77390
L80300 77360
L80330 77340
L80330 77390
" />
<path d="M80730 76800
L80780 76800
L80840 76830
L80870 76860
L80890 76910
L80920 77030
L80920 77170
L80890 77280
L80870 77340
L80840 77360
L80780 77390
L80730 77390
L80670 77360
L80640 77340
L80610 77280
L80580 77170
L80580 77030
L80610 76910
L80640 76860
L80670 76830
L80730 76800
" />
<path d="M81170 77340
L81200 77360
L81170 77390
L81150 77360
L81170 77340
L81170 77390
" />
<path d="M81570 76800
L81620 76800
L81680 76830
L81710 76860
L81740 76910
L81760 77030
L81760 77170
L81740 77280
L81710 77340
L81680 77360
L81620 77390
L81570 77390
L81510 77360
L81480 77340
L81460 77280
L81430 77170
L81430 77030
L81460 76910
L81480 76860
L81510 76830
L81570 76800
" />
<path d="M81960 77620
L81990 77590
L82050 77500
L82070 77450
L82100 77360
L82130 77220
L82130 77110
L82100 76970
L82070 76890
L82050 76830
L81990 76750
L81960 76720
" />
</g>
<g style="fill:#840000; fill-opacity:0.0; 
stroke:#840000; stroke-width:100; stroke-opacity:1; 
stroke-linecap:round; stroke-linejoin:round;">
</g>
<g style="fill:#840000; fill-opacity:0.0; 
stroke:#840000; stroke-width:60; stroke-opacity:1; 
stroke-linecap:round; stroke-linejoin:round;">
<path d="M69690 75400
L112210 75400
" />
</g>
<g style="fill:#840000; fill-opacity:0.0; 
stroke:#840000; stroke-width:100; stroke-opacity:1; 
stroke-linecap:round; stroke-linejoin:round;">
</g>
<g style="fill:#840000; fill-opacity:0.0; 
stroke:#840000; stroke-width:120; stroke-opacity:1; 
stroke-linecap:round; stroke-linejoin:round;">
<path d="M104090 76290
L103890 76010
" />
<path d="M103750 76290
L103750 75700
L103980 75700
L104030 75730
L104060 75760
L104090 75810
L104090 75900
L104060 75950
L104030 75980
L103980 76010
L103750 76010
" />
<path d="M104570 76260
L104510 76290
L104400 76290
L104340 76260
L104320 76210
L104320 75980
L104340 75930
L104400 75900
L104510 75900
L104570 75930
L104600 75980
L104600 76040
L104320 76100
" />
<path d="M104790 75900
L104930 76290
L105070 75900
" />
<path d="M105300 76240
L105330 76260
L105300 76290
L105270 76260
L105300 76240
L105300 76290
" />
<path d="M105300 75930
L105330 75950
L105300 75980
L105270 75950
L105300 75930
L105300 75980
" />
<path d="M106340 76290
L106000 76290
" />
<path d="M106170 76290
L106170 75700
L106110 75790
L106060 75840
L106000 75870
" />
<path d="M106590 76240
L106620 76260
L106590 76290
L106560 76260
L106590 76240
L106590 76290
" />
<path d="M106980 75700
L107040 75700
L107100 75730
L107120 75760
L107150 75810
L107180 75930
L107180 76070
L107150 76180
L107120 76240
L107100 76260
L107040 76290
L106980 76290
L106930 76260
L106900 76240
L106870 76180
L106840 76070
L106840 75930
L106870 75810
L106900 75760
L106930 75730
L106980 75700
" />
</g>
<g style="fill:#840000; fill-opacity:0.0; 
stroke:#840000; stroke-width:100; stroke-opacity:1; 
stroke-linecap:round; stroke-linejoin:round;">
</g>
<g style="fill:#840000; fill-opacity:0.0; 
stroke:#840000; stroke-width:60; stroke-opacity:1; 
stroke-linecap:round; stroke-linejoin:round;">
<path d="M70220 76260
L70300 76290
L70440 76290
L70500 76260
L70530 76240
L70550 76180
L70550 76120
L70530 76070
L70500 76040
L70440 76010
L70330 75980
L70270 75950
L70250 75930
L70220 75870
L70220 75810
L70250 75760
L70270 75730
L70330 75700
L70470 75700
L70550 75730
" />
<path d="M70810 76290
L70810 75900
" />
<path d="M70810 75700
L70780 75730
L70810 75760
L70840 75730
L70810 75700
L70810 75760
" />
<path d="M71030 75900
L71340 75900
L71030 76290
L71340 76290
" />
<path d="M71790 76260
L71730 76290
L71620 76290
L71570 76260
L71540 76210
L71540 75980
L71570 75930
L71620 75900
L71730 75900
L71790 75930
L71820 75980
L71820 76040
L71540 76100
" />
<path d="M72070 76240
L72100 76260
L72070 76290
L72040 76260
L72070 76240
L72070 76290
" />
<path d="M72070 75930
L72100 75950
L72070 75980
L72040 75950
L72070 75930
L72070 75980
" />
<path d="M72770 76120
L73060 76120
" />
<path d="M72720 76290
L72910 75700
L73110 76290
" />
<path d="M73560 75900
L73560 76290
" />
<path d="M73420 75670
L73280 76100
L73650 76100
" />
</g>
<g style="fill:#840000; fill-opacity:0.0; 
stroke:#840000; stroke-width:100; stroke-opacity:1; 
stroke-linecap:round; stroke-linejoin:round;">
</g>
<g style="fill:#840000; fill-opacity:0.0; 
stroke:#840000; stroke-width:60; stroke-opacity:1; 
stroke-linecap:round; stroke-linejoin:round;">
<path d="M103710 77390
L103710 76800
" />
<path d="M104240 77390
L104240 76800
" />
<path d="M104240 77360
L104180 77390
L104070 77390
L104010 77360
L103990 77340
L103960 77280
L103960 77110
L103990 77050
L104010 77030
L104070 77000
L104180 77000
L104240 77030
" />
<path d="M104520 77340
L104550 77360
L104520 77390
L104490 77360
L104520 77340
L104520 77390
" />
<path d="M104520 77030
L104550 77050
L104520 77080
L104490 77050
L104520 77030
L104520 77080
" />
<path d="M105560 77390
L105220 77390
" />
<path d="M105390 77390
L105390 76800
L105340 76890
L105280 76940
L105220 76970
" />
<path d="M106230 76770
L105730 77530
" />
<path d="M106740 77390
L106400 77390
" />
<path d="M106570 77390
L106570 76800
L106520 76890
L106460 76940
L106400 76970
" />
</g>
<g style="fill:#840000; fill-opacity:0.0; 
stroke:#840000; stroke-width:100; stroke-opacity:1; 
stroke-linecap:round; stroke-linejoin:round;">
</g>
<g style="fill:#840000; fill-opacity:0.0; 
stroke:#840000; stroke-width:60; stroke-opacity:1; 
stroke-linecap:round; stroke-linejoin:round;">
<path d="M69690 73820
L112210 73820
" />
</g>
<g style="fill:#840000; fill-opacity:0.0; 
stroke:#840000; stroke-width:100; stroke-opacity:1; 
stroke-linecap:round; stroke-linejoin:round;">
</g>
<g style="fill:#840000; fill-opacity:0.0; 
stroke:#840000; stroke-width:160; stroke-opacity:1; 
stroke-linecap:round; stroke-linejoin:round;">
<path d="M70360 74090
L70810 74090
" />
<path d="M70480 74880
L70580 74090
" />
<path d="M70970 74880
L71040 74360
" />
<path d="M71070 74090
L71030 74130
L71060 74170
L71110 74130
L71070 74090
L71060 74170
" />
<path d="M71300 74360
L71600 74360
" />
<path d="M71450 74090
L71360 74770
L71390 74840
L71460 74880
L71540 74880
" />
<path d="M71910 74880
L71840 74840
L71820 74770
L71900 74090
" />
<path d="M72520 74840
L72440 74880
L72290 74880
L72220 74840
L72190 74770
L72230 74470
L72280 74390
L72360 74360
L72510 74360
L72580 74390
L72610 74470
L72600 74540
L72210 74620
" />
<path d="M72900 74810
L72930 74840
L72890 74880
L72860 74840
L72900 74810
L72890 74880
" />
<path d="M72950 74390
L72990 74430
L72940 74470
L72910 74430
L72950 74390
L72940 74470
" />
<path d="M74280 74880
L73830 74880
" />
<path d="M74060 74880
L74160 74090
L74070 74210
L73980 74280
L73900 74320
" />
<path d="M74670 74170
L74720 74130
L74800 74090
L74980 74090
L75060 74130
L75090 74170
L75120 74240
L75110 74320
L75060 74430
L74550 74880
L75040 74880
" />
<path d="M75620 74090
L75700 74090
L75770 74130
L75800 74170
L75830 74240
L75850 74390
L75830 74580
L75770 74730
L75720 74810
L75680 74840
L75600 74880
L75530 74880
L75460 74840
L75420 74810
L75390 74730
L75380 74580
L75400 74390
L75460 74240
L75500 74170
L75540 74130
L75620 74090
" />
<path d="M76560 74090
L76410 74090
L76330 74130
L76290 74170
L76200 74280
L76150 74430
L76110 74730
L76140 74810
L76170 74840
L76240 74880
L76390 74880
L76470 74840
L76510 74810
L76560 74730
L76580 74540
L76560 74470
L76520 74430
L76450 74390
L76300 74390
L76220 74430
L76180 74470
L76130 74540
" />
<path d="M77860 74880
L77480 74880
L77580 74090
" />
<path d="M78170 74470
L78440 74470
" />
<path d="M78500 74880
L78120 74880
L78220 74090
L78600 74090
" />
<path d="M78840 74880
L78930 74090
L79120 74090
L79230 74130
L79300 74210
L79330 74280
L79340 74430
L79330 74540
L79270 74690
L79230 74770
L79140 74840
L79020 74880
L78840 74880
" />
<path d="M80200 74840
L80300 74880
L80490 74880
L80570 74840
L80610 74810
L80660 74730
L80670 74660
L80640 74580
L80610 74540
L80540 74510
L80390 74470
L80320 74430
L80290 74390
L80260 74320
L80270 74240
L80320 74170
L80360 74130
L80440 74090
L80630 74090
L80740 74130
" />
<path d="M81320 74880
L81370 74470
L81340 74390
L81270 74360
L81120 74360
L81040 74390
" />
<path d="M81320 74840
L81240 74880
L81060 74880
L80990 74840
L80960 74770
L80970 74690
L81010 74620
L81090 74580
L81280 74580
L81360 74540
" />
<path d="M81650 74360
L81950 74360
" />
<path d="M81790 74090
L81710 74770
L81740 74840
L81810 74880
L81880 74880
" />
<path d="M82450 74840
L82370 74880
L82220 74880
L82150 74840
L82120 74770
L82160 74470
L82210 74390
L82290 74360
L82440 74360
L82510 74390
L82540 74470
L82530 74540
L82140 74620
" />
<path d="M82940 74880
L82870 74840
L82840 74770
L82920 74090
" />
<path d="M83350 74880
L83280 74840
L83250 74770
L83340 74090
" />
<path d="M83650 74880
L83720 74360
" />
<path d="M83750 74090
L83710 74130
L83740 74170
L83780 74130
L83750 74090
L83740 74170
" />
<path d="M83980 74360
L84280 74360
" />
<path d="M84130 74090
L84040 74770
L84070 74840
L84140 74880
L84220 74880
" />
<path d="M84780 74840
L84700 74880
L84550 74880
L84480 74840
L84460 74770
L84490 74470
L84540 74390
L84620 74360
L84770 74360
L84840 74390
L84870 74470
L84860 74540
L84470 74620
" />
<path d="M86070 74470
L86180 74510
L86210 74540
L86240 74620
L86230 74730
L86180 74810
L86140 74840
L86060 74880
L85760 74880
L85860 74090
L86120 74090
L86190 74130
L86220 74170
L86250 74240
L86240 74320
L86200 74390
L86150 74430
L86070 74470
L85810 74470
" />
<path d="M86660 74880
L86590 74840
L86560 74810
L86530 74730
L86560 74510
L86600 74430
L86650 74390
L86730 74360
L86840 74360
L86910 74390
L86940 74430
L86970 74510
L86940 74730
L86900 74810
L86850 74840
L86770 74880
L86660 74880
" />
<path d="M87600 74880
L87650 74470
L87620 74390
L87550 74360
L87400 74360
L87320 74390
" />
<path d="M87610 74840
L87530 74880
L87340 74880
L87270 74840
L87240 74770
L87250 74690
L87300 74620
L87380 74580
L87560 74580
L87640 74540
" />
<path d="M87980 74880
L88040 74360
" />
<path d="M88020 74510
L88070 74430
L88110 74390
L88190 74360
L88270 74360
" />
<path d="M88810 74880
L88900 74090
" />
<path d="M88810 74840
L88730 74880
L88580 74880
L88510 74840
L88480 74810
L88450 74730
L88480 74510
L88520 74430
L88570 74390
L88650 74360
L88800 74360
L88870 74390
" />
</g>
<g style="fill:#840000; fill-opacity:0.0; 
stroke:#840000; stroke-width:100; stroke-opacity:1; 
stroke-linecap:round; stroke-linejoin:round;">
</g>
<g style="fill:#840000; fill-opacity:0.0; 
stroke:#840000; stroke-width:60; stroke-opacity:1; 
stroke-linecap:round; stroke-linejoin:round;">
<path d="M70440 73060
L70250 73060
" />
<path d="M70250 73370
L70250 72780
L70530 72780
" />
<path d="M70750 73370
L70750 72980
" />
<path d="M70750 72780
L70720 72810
L70750 72840
L70780 72810
L70750 72780
L70750 72840
" />
<path d="M71120 73370
L71060 73340
L71030 73290
L71030 72780
" />
<path d="M71570 73340
L71510 73370
L71400 73370
L71340 73340
L71310 73290
L71310 73060
L71340 73010
L71400 72980
L71510 72980
L71570 73010
L71590 73060
L71590 73120
L71310 73180
" />
<path d="M71850 73320
L71880 73340
L71850 73370
L71820 73340
L71850 73320
L71850 73370
" />
<path d="M71850 73010
L71880 73030
L71850 73060
L71820 73030
L71850 73010
L71850 73060
" />
<path d="M72890 73370
L72550 73370
" />
<path d="M72720 73370
L72720 72780
L72660 72870
L72610 72920
L72550 72950
" />
<path d="M73110 72840
L73140 72810
L73200 72780
L73340 72780
L73390 72810
L73420 72840
L73450 72890
L73450 72950
L73420 73030
L73080 73370
L73450 73370
" />
<path d="M73810 72780
L73870 72780
L73930 72810
L73950 72840
L73980 72890
L74010 73010
L74010 73150
L73980 73260
L73950 73320
L73930 73340
L73870 73370
L73810 73370
L73760 73340
L73730 73320
L73700 73260
L73670 73150
L73670 73010
L73700 72890
L73730 72840
L73760 72810
L73810 72780
" />
<path d="M74520 72780
L74400 72780
L74350 72810
L74320 72840
L74260 72920
L74240 73030
L74240 73260
L74260 73320
L74290 73340
L74350 73370
L74460 73370
L74520 73340
L74540 73320
L74570 73260
L74570 73120
L74540 73060
L74520 73030
L74460 73010
L74350 73010
L74290 73030
L74260 73060
L74240 73120
" />
<path d="M74680 73430
L75130 73430
" />
<path d="M75360 73370
L75300 73340
L75270 73290
L75270 72780
" />
<path d="M75810 73340
L75750 73370
L75640 73370
L75580 73340
L75560 73290
L75560 73060
L75580 73010
L75640 72980
L75750 72980
L75810 73010
L75840 73060
L75840 73120
L75560 73180
" />
<path d="M76340 73370
L76340 72780
" />
<path d="M76340 73340
L76290 73370
L76170 73370
L76120 73340
L76090 73320
L76060 73260
L76060 73090
L76090 73030
L76120 73010
L76170 72980
L76290 72980
L76340 73010
" />
<path d="M76480 73430
L76930 73430
" />
<path d="M77040 73340
L77100 73370
L77210 73370
L77270 73340
L77300 73290
L77300 73260
L77270 73200
L77210 73180
L77130 73180
L77070 73150
L77040 73090
L77040 73060
L77070 73010
L77130 72980
L77210 72980
L77270 73010
" />
<path d="M77800 73370
L77800 73060
L77780 73010
L77720 72980
L77610 72980
L77550 73010
" />
<path d="M77800 73340
L77750 73370
L77610 73370
L77550 73340
L77520 73290
L77520 73230
L77550 73180
L77610 73150
L77750 73150
L77800 73120
" />
<path d="M78000 72980
L78220 72980
" />
<path d="M78080 72780
L78080 73290
L78110 73340
L78170 73370
L78220 73370
" />
<path d="M78650 73340
L78590 73370
L78480 73370
L78420 73340
L78390 73290
L78390 73060
L78420 73010
L78480 72980
L78590 72980
L78650 73010
L78670 73060
L78670 73120
L78390 73180
" />
<path d="M79010 73370
L78960 73340
L78930 73290
L78930 72780
" />
<path d="M79320 73370
L79260 73340
L79240 73290
L79240 72780
" />
<path d="M79550 73370
L79550 72980
" />
<path d="M79550 72780
L79520 72810
L79550 72840
L79570 72810
L79550 72780
L79550 72840
" />
<path d="M79740 72980
L79970 72980
" />
<path d="M79830 72780
L79830 73290
L79850 73340
L79910 73370
L79970 73370
" />
<path d="M80390 73340
L80330 73370
L80220 73370
L80160 73340
L80140 73290
L80140 73060
L80160 73010
L80220 72980
L80330 72980
L80390 73010
L80420 73060
L80420 73120
L80140 73180
" />
<path d="M80530 73430
L80980 73430
" />
<path d="M81120 73370
L81120 72780
" />
<path d="M81120 73010
L81170 72980
L81290 72980
L81340 73010
L81370 73030
L81400 73090
L81400 73260
L81370 73320
L81340 73340
L81290 73370
L81170 73370
L81120 73340
" />
<path d="M81740 73370
L81680 73340
L81650 73320
L81620 73260
L81620 73090
L81650 73030
L81680 73010
L81740 72980
L81820 72980
L81880 73010
L81910 73030
L81930 73090
L81930 73260
L81910 73320
L81880 73340
L81820 73370
L81740 73370
" />
<path d="M82440 73370
L82440 73060
L82410 73010
L82350 72980
L82240 72980
L82190 73010
" />
<path d="M82440 73340
L82380 73370
L82240 73370
L82190 73340
L82160 73290
L82160 73230
L82190 73180
L82240 73150
L82380 73150
L82440 73120
" />
<path d="M82720 73370
L82720 72980
" />
<path d="M82720 73090
L82750 73030
L82780 73010
L82830 72980
L82890 72980
" />
<path d="M83340 73370
L83340 72780
" />
<path d="M83340 73340
L83280 73370
L83170 73370
L83110 73340
L83090 73320
L83060 73260
L83060 73090
L83090 73030
L83110 73010
L83170 72980
L83280 72980
L83340 73010
" />
<path d="M83620 73150
L84070 73150
" />
<path d="M84350 73370
L84350 72980
" />
<path d="M84350 73090
L84380 73030
L84410 73010
L84460 72980
L84520 72980
" />
<path d="M84940 73340
L84880 73370
L84770 73370
L84710 73340
L84690 73290
L84690 73060
L84710 73010
L84770 72980
L84880 72980
L84940 73010
L84970 73060
L84970 73120
L84690 73180
" />
<path d="M85160 72980
L85300 73370
L85450 72980
" />
<path d="M85530 73430
L85980 73430
" />
<path d="M86430 73370
L86090 73370
" />
<path d="M86260 73370
L86260 72780
L86200 72870
L86150 72920
L86090 72950
" />
<path d="M86680 73320
L86710 73340
L86680 73370
L86650 73340
L86680 73320
L86680 73370
" />
<path d="M87070 72780
L87130 72780
L87190 72810
L87220 72840
L87240 72890
L87270 73010
L87270 73150
L87240 73260
L87220 73320
L87190 73340
L87130 73370
L87070 73370
L87020 73340
L86990 73320
L86960 73260
L86930 73150
L86930 73010
L86960 72890
L86990 72840
L87020 72810
L87070 72780
" />
<path d="M87520 73320
L87550 73340
L87520 73370
L87500 73340
L87520 73320
L87520 73370
" />
<path d="M87780 73340
L87830 73370
L87950 73370
L88000 73340
L88030 73290
L88030 73260
L88000 73200
L87950 73180
L87860 73180
L87810 73150
L87780 73090
L87780 73060
L87810 73010
L87860 72980
L87950 72980
L88000 73010
" />
<path d="M88540 73340
L88480 73370
L88370 73370
L88310 73340
L88280 73320
L88250 73260
L88250 73090
L88280 73030
L88310 73010
L88370 72980
L88480 72980
L88540 73010
" />
<path d="M88790 73370
L88790 72780
" />
<path d="M89040 73370
L89040 73060
L89010 73010
L88960 72980
L88870 72980
L88820 73010
L88790 73030
" />
</g>
<g style="fill:#840000; fill-opacity:0.0; 
stroke:#840000; stroke-width:100; stroke-opacity:1; 
stroke-linecap:round; stroke-linejoin:round;">
</g>
<g style="fill:#840000; fill-opacity:0.0; 
stroke:#840000; stroke-width:60; stroke-opacity:1; 
stroke-linecap:round; stroke-linejoin:round;">
<path d="M69690 71460
L112210 71460
" />
</g>
<g style="fill:#840000; fill-opacity:0.0; 
stroke:#840000; stroke-width:100; stroke-opacity:1; 
stroke-linecap:round; stroke-linejoin:round;">
</g>
<g style="fill:#840000; fill-opacity:0.0; 
stroke:#840000; stroke-width:60; stroke-opacity:1; 
stroke-linecap:round; stroke-linejoin:round;">
<path d="M70220 72280
L70300 72310
L70440 72310
L70500 72280
L70530 72260
L70550 72200
L70550 72140
L70530 72090
L70500 72060
L70440 72030
L70330 72000
L70270 71970
L70250 71950
L70220 71890
L70220 71830
L70250 71780
L70270 71750
L70330 71720
L70470 71720
L70550 71750
" />
<path d="M70810 72310
L70810 71720
" />
<path d="M71060 72310
L71060 72000
L71030 71950
L70980 71920
L70890 71920
L70840 71950
L70810 71970
" />
<path d="M71570 72280
L71510 72310
L71400 72310
L71340 72280
L71310 72230
L71310 72000
L71340 71950
L71400 71920
L71510 71920
L71570 71950
L71590 72000
L71590 72060
L71310 72120
" />
<path d="M72070 72280
L72020 72310
L71900 72310
L71850 72280
L71820 72230
L71820 72000
L71850 71950
L71900 71920
L72020 71920
L72070 71950
L72100 72000
L72100 72060
L71820 72120
" />
<path d="M72270 71920
L72490 71920
" />
<path d="M72350 71720
L72350 72230
L72380 72280
L72440 72310
L72490 72310
" />
<path d="M72690 72260
L72720 72280
L72690 72310
L72660 72280
L72690 72260
L72690 72310
" />
<path d="M72690 71950
L72720 71970
L72690 72000
L72660 71970
L72690 71950
L72690 72000
" />
<path d="M73840 71690
L73340 72450
" />
</g>
<g style="fill:#840000; fill-opacity:0.0; 
stroke:#840000; stroke-width:100; stroke-opacity:1; 
stroke-linecap:round; stroke-linejoin:round;">
</g>
<g style="fill:#840000; fill-opacity:0.0; 
stroke:#840000; stroke-width:120; stroke-opacity:1; 
stroke-linecap:round; stroke-linejoin:round;">
<path d="M70290 71130
L70290 70540
L70520 70540
L70570 70570
L70600 70600
L70630 70650
L70630 70740
L70600 70790
L70570 70820
L70520 70850
L70290 70850
" />
<path d="M70880 71130
L70880 70740
" />
<path d="M70880 70540
L70860 70570
L70880 70600
L70910 70570
L70880 70540
L70880 70600
" />
<path d="M71160 70740
L71160 71130
" />
<path d="M71160 70790
L71190 70770
L71250 70740
L71330 70740
L71390 70770
L71420 70820
L71420 71130
" />
<path d="M71890 70820
L71980 70850
L72010 70880
L72040 70940
L72040 71020
L72010 71080
L71980 71100
L71920 71130
L71700 71130
L71700 70540
L71890 70540
L71950 70570
L71980 70600
L72010 70650
L72010 70710
L71980 70770
L71950 70790
L71890 70820
L71700 70820
" />
<path d="M72540 70740
L72540 71130
" />
<path d="M72290 70740
L72290 71050
L72320 71100
L72370 71130
L72460 71130
L72510 71100
L72540 71080
" />
<path d="M72790 71100
L72850 71130
L72960 71130
L73020 71100
L73050 71050
L73050 71020
L73020 70960
L72960 70940
L72880 70940
L72820 70910
L72790 70850
L72790 70820
L72820 70770
L72880 70740
L72960 70740
L73020 70770
" />
</g>
<g style="fill:#840000; fill-opacity:0.0; 
stroke:#840000; stroke-width:100; stroke-opacity:1; 
stroke-linecap:round; stroke-linejoin:round;">
</g>
<g style="fill:#840000; fill-opacity:0.0; 
stroke:#840000; stroke-width:60; stroke-opacity:1; 
stroke-linecap:round; stroke-linejoin:round;">
<path d="M77560 75400
L77560 76580
" />
</g>
<g style="fill:#840000; fill-opacity:0.0; 
stroke:#840000; stroke-width:100; stroke-opacity:1; 
stroke-linecap:round; stroke-linejoin:round;">
</g>
<g style="fill:#840000; fill-opacity:0.0; 
stroke:#840000; stroke-width:60; stroke-opacity:1; 
stroke-linecap:round; stroke-linejoin:round;">
<path d="M102760 75400
L102760 77960
" />
</g>
<g style="fill:#840000; fill-opacity:0.0; 
stroke:#840000; stroke-width:0; stroke-opacity:1; 
stroke-linecap:round; stroke-linejoin:round;">
</g>
<g style="fill:#840000; fill-opacity:0.0; 
stroke:#840000; stroke-width:80; stroke-opacity:1; 
stroke-linecap:round; stroke-linejoin:round;">
<polyline fill="none;"
points="57500,36500
57500,37500
" /> 
</g>
<g style="fill:#840000; fill-opacity:0.0; 
stroke:#840000; stroke-width:60; stroke-opacity:1; 
stroke-linecap:round; stroke-linejoin:round;">
<polyline fill="none;"
points="57500,37000
56500,37000
" /> 
</g>
<g style="fill:#840000; fill-opacity:0.0; 
stroke:#840000; stroke-width:80; stroke-opacity:1; 
stroke-linecap:round; stroke-linejoin:round;">
<polyline fill="none;"
points="56500,36500
56500,37500
57500,37000
56500,36500
" /> 
</g>
<g style="fill:#840000; fill-opacity:0.0; 
stroke:#840000; stroke-width:60; stroke-opacity:1; 
stroke-linecap:round; stroke-linejoin:round;">
<polyline fill="none;"
points="58200,36700
58800,36100
58500,36100
58800,36100
58800,36400
" /> 
<polyline fill="none;"
points="57700,36700
58300,36100
58000,36100
58300,36100
58300,36400
" /> 
<path d="M57500 37000
L58500 37000
" />
<path d="M56500 37000
L55500 37000
" />
</g>
<g style="fill:#008484; fill-opacity:0.0; 
stroke:#008484; stroke-width:60; stroke-opacity:1; 
stroke-linecap:round; stroke-linejoin:round;">
<path d="M56710 34640
L56710 34140
L56830 34140
L56900 34170
L56940 34210
L56970 34260
L56990 34360
L56990 34430
L56970 34520
L56940 34570
L56900 34620
L56830 34640
L56710 34640
" />
<path d="M57470 34640
L57180 34640
" />
<path d="M57330 34640
L57330 34140
L57280 34210
L57230 34260
L57180 34280
" />
<path d="M56750 35550
L56520 35550
L56520 35050
" />
<path d="M56920 35290
L57090 35290
" />
<path d="M57160 35550
L56920 35550
L56920 35050
L57160 35050
" />
<path d="M57370 35550
L57370 35050
L57490 35050
L57560 35080
L57610 35120
L57630 35170
L57660 35270
L57660 35340
L57630 35430
L57610 35480
L57560 35530
L57490 35550
L57370 35550
" />
</g>
<g style="fill:#008484; fill-opacity:0.0; 
stroke:#008484; stroke-width:0; stroke-opacity:1; 
stroke-linecap:round; stroke-linejoin:round;">
</g>
<g style="fill:#840000; fill-opacity:0.0; 
stroke:#840000; stroke-width:0; stroke-opacity:1; 
stroke-linecap:round; stroke-linejoin:round;">
</g>
<g style="fill:#840000; fill-opacity:0.0; 
stroke:#840000; stroke-width:80; stroke-opacity:1; 
stroke-linecap:round; stroke-linejoin:round;">
<polyline fill="none;"
points="61500,36500
61500,37500
" /> 
</g>
<g style="fill:#840000; fill-opacity:0.0; 
stroke:#840000; stroke-width:60; stroke-opacity:1; 
stroke-linecap:round; stroke-linejoin:round;">
<polyline fill="none;"
points="61500,37000
60500,37000
" /> 
</g>
<g style="fill:#840000; fill-opacity:0.0; 
stroke:#840000; stroke-width:80; stroke-opacity:1; 
stroke-linecap:round; stroke-linejoin:round;">
<polyline fill="none;"
points="60500,36500
60500,37500
61500,37000
60500,36500
" /> 
</g>
<g style="fill:#840000; fill-opacity:0.0; 
stroke:#840000; stroke-width:60; stroke-opacity:1; 
stroke-linecap:round; stroke-linejoin:round;">
<polyline fill="none;"
points="62200,36700
62800,36100
62500,36100
62800,36100
62800,36400
" /> 
<polyline fill="none;"
points="61700,36700
62300,36100
62000,36100
62300,36100
62300,36400
" /> 
<path d="M61500 37000
L62500 37000
" />
<path d="M60500 37000
L59500 37000
" />
</g>
<g style="fill:#008484; fill-opacity:0.0; 
stroke:#008484; stroke-width:60; stroke-opacity:1; 
stroke-linecap:round; stroke-linejoin:round;">
<path d="M60710 34640
L60710 34140
L60830 34140
L60900 34170
L60940 34210
L60970 34260
L60990 34360
L60990 34430
L60970 34520
L60940 34570
L60900 34620
L60830 34640
L60710 34640
" />
<path d="M61180 34190
L61210 34170
L61250 34140
L61370 34140
L61420 34170
L61440 34190
L61470 34240
L61470 34280
L61440 34360
L61160 34640
L61470 34640
" />
<path d="M60750 35550
L60520 35550
L60520 35050
" />
<path d="M60920 35290
L61090 35290
" />
<path d="M61160 35550
L60920 35550
L60920 35050
L61160 35050
" />
<path d="M61370 35550
L61370 35050
L61490 35050
L61560 35080
L61610 35120
L61630 35170
L61660 35270
L61660 35340
L61630 35430
L61610 35480
L61560 35530
L61490 35550
L61370 35550
" />
</g>
<g style="fill:#008484; fill-opacity:0.0; 
stroke:#008484; stroke-width:0; stroke-opacity:1; 
stroke-linecap:round; stroke-linejoin:round;">
</g>
<g style="fill:#840000; fill-opacity:0.0; 
stroke:#840000; stroke-width:0; stroke-opacity:1; 
stroke-linecap:round; stroke-linejoin:round;">
</g>
<g style="fill:#840000; fill-opacity:0.0; 
stroke:#840000; stroke-width:80; stroke-opacity:1; 
stroke-linecap:round; stroke-linejoin:round;">
<polyline fill="none;"
points="65500,36500
65500,37500
" /> 
</g>
<g style="fill:#840000; fill-opacity:0.0; 
stroke:#840000; stroke-width:60; stroke-opacity:1; 
stroke-linecap:round; stroke-linejoin:round;">
<polyline fill="none;"
points="65500,37000
64500,37000
" /> 
</g>
<g style="fill:#840000; fill-opacity:0.0; 
stroke:#840000; stroke-width:80; stroke-opacity:1; 
stroke-linecap:round; stroke-linejoin:round;">
<polyline fill="none;"
points="64500,36500
64500,37500
65500,37000
64500,36500
" /> 
</g>
<g style="fill:#840000; fill-opacity:0.0; 
stroke:#840000; stroke-width:60; stroke-opacity:1; 
stroke-linecap:round; stroke-linejoin:round;">
<polyline fill="none;"
points="66200,36700
66800,36100
66500,36100
66800,36100
66800,36400
" /> 
<polyline fill="none;"
points="65700,36700
66300,36100
66000,36100
66300,36100
66300,36400
" /> 
<path d="M65500 37000
L66500 37000
" />
<path d="M64500 37000
L63500 37000
" />
</g>
<g style="fill:#008484; fill-opacity:0.0; 
stroke:#008484; stroke-width:60; stroke-opacity:1; 
stroke-linecap:round; stroke-linejoin:round;">
<path d="M64710 34640
L64710 34140
L64830 34140
L64900 34170
L64940 34210
L64970 34260
L64990 34360
L64990 34430
L64970 34520
L64940 34570
L64900 34620
L64830 34640
L64710 34640
" />
<path d="M65160 34140
L65470 34140
L65300 34330
L65370 34330
L65420 34360
L65440 34380
L65470 34430
L65470 34550
L65440 34590
L65420 34620
L65370 34640
L65230 34640
L65180 34620
L65160 34590
" />
<path d="M64750 35550
L64520 35550
L64520 35050
" />
<path d="M64920 35290
L65090 35290
" />
<path d="M65160 35550
L64920 35550
L64920 35050
L65160 35050
" />
<path d="M65370 35550
L65370 35050
L65490 35050
L65560 35080
L65610 35120
L65630 35170
L65660 35270
L65660 35340
L65630 35430
L65610 35480
L65560 35530
L65490 35550
L65370 35550
" />
</g>
<g style="fill:#008484; fill-opacity:0.0; 
stroke:#008484; stroke-width:0; stroke-opacity:1; 
stroke-linecap:round; stroke-linejoin:round;">
</g>
<g style="fill:#840000; fill-opacity:0.0; 
stroke:#840000; stroke-width:0; stroke-opacity:1; 
stroke-linecap:round; stroke-linejoin:round;">
</g>
<g style="fill:#840000; fill-opacity:0.0; 
stroke:#840000; stroke-width:100; stroke-opacity:1; 
stroke-linecap:round; stroke-linejoin:round;">
<rect x="66600" y="38000" width="800" height="2000" rx="0" />
</g>
<g style="fill:#840000; fill-opacity:0.0; 
stroke:#840000; stroke-width:60; stroke-opacity:1; 
stroke-linecap:round; stroke-linejoin:round;">
<path d="M67000 38000
L67000 37500
" />
<path d="M67000 40000
L67000 40500
" />
</g>
<g style="fill:#008484; fill-opacity:0.0; 
stroke:#008484; stroke-width:60; stroke-opacity:1; 
stroke-linecap:round; stroke-linejoin:round;">
<path d="M68130 38780
L67970 38540
" />
<path d="M67850 38780
L67850 38280
L68040 38280
L68080 38310
L68110 38330
L68130 38380
L68130 38450
L68110 38500
L68080 38520
L68040 38540
L67850 38540
" />
<path d="M68610 38780
L68320 38780
" />
<path d="M68470 38780
L68470 38280
L68420 38350
L68370 38400
L68320 38420
" />
<path d="M67940 39190
L67990 39190
L68040 39220
L68060 39240
L68080 39290
L68110 39380
L68110 39500
L68080 39600
L68060 39640
L68040 39670
L67990 39690
L67940 39690
L67890 39670
L67870 39640
L67850 39600
L67820 39500
L67820 39380
L67850 39290
L67870 39240
L67890 39220
L67940 39190
" />
<path d="M68610 39690
L68440 39450
" />
<path d="M68320 39690
L68320 39190
L68510 39190
L68560 39220
L68580 39240
L68610 39290
L68610 39360
L68580 39410
L68560 39430
L68510 39450
L68320 39450
" />
</g>
<g style="fill:#008484; fill-opacity:0.0; 
stroke:#008484; stroke-width:0; stroke-opacity:1; 
stroke-linecap:round; stroke-linejoin:round;">
</g>
<g style="fill:#840000; fill-opacity:0.0; 
stroke:#840000; stroke-width:0; stroke-opacity:1; 
stroke-linecap:round; stroke-linejoin:round;">
</g>
<g style="fill:#840000; fill-opacity:1.0; 
stroke:#840000; stroke-width:60; stroke-opacity:1; 
stroke-linecap:round; stroke-linejoin:round;">
<rect x="49000" y="39450" width="340" height="100" rx="0" />
<rect x="49000" y="38450" width="340" height="100" rx="0" />
</g>
<g style="fill:#840000; fill-opacity:0.0; 
stroke:#840000; stroke-width:60; stroke-opacity:1; 
stroke-linecap:round; stroke-linejoin:round;">
<polyline fill="none;"
points="49500,39500
49340,39500
" /> 
<polyline fill="none;"
points="49500,38500
49340,38500
" /> 
<path d="M49500 38500
L51000 38500
" />
<path d="M50390 38370
L50100 38370
" />
<path d="M50250 38370
L50250 37870
L50200 37940
L50150 37990
L50100 38010
" />
<path d="M49500 39500
L51000 39500
" />
<path d="M50100 38920
L50130 38900
L50170 38870
L50290 38870
L50340 38900
L50360 38920
L50390 38970
L50390 39010
L50360 39090
L50080 39370
L50390 39370
" />
</g>
<g style="fill:#008484; fill-opacity:0.0; 
stroke:#008484; stroke-width:60; stroke-opacity:1; 
stroke-linecap:round; stroke-linejoin:round;">
<path d="M49890 36460
L49890 36820
L49860 36890
L49820 36940
L49750 36960
L49700 36960
" />
<path d="M50390 36960
L50100 36960
" />
<path d="M50250 36960
L50250 36460
L50200 36530
L50150 36580
L50100 36600
" />
<path d="M47140 37820
L47110 37850
L47040 37870
L47000 37870
L46920 37850
L46880 37800
L46850 37750
L46830 37660
L46830 37590
L46850 37490
L46880 37440
L46920 37400
L47000 37370
L47040 37370
L47110 37400
L47140 37420
" />
<path d="M47420 37870
L47380 37850
L47350 37820
L47330 37780
L47330 37630
L47350 37590
L47380 37560
L47420 37540
L47500 37540
L47540 37560
L47570 37590
L47590 37630
L47590 37780
L47570 37820
L47540 37850
L47500 37870
L47420 37870
" />
<path d="M47810 37540
L47810 37870
" />
<path d="M47810 37590
L47830 37560
L47880 37540
L47950 37540
L48000 37560
L48020 37610
L48020 37870
" />
<path d="M48260 37540
L48260 37870
" />
<path d="M48260 37590
L48280 37560
L48330 37540
L48400 37540
L48450 37560
L48470 37610
L48470 37870
" />
<path d="M48590 37920
L48970 37920
" />
<path d="M49190 37370
L49230 37370
L49280 37400
L49310 37420
L49330 37470
L49350 37560
L49350 37680
L49330 37780
L49310 37820
L49280 37850
L49230 37870
L49190 37870
L49140 37850
L49110 37820
L49090 37780
L49070 37680
L49070 37560
L49090 37470
L49110 37420
L49140 37400
L49190 37370
" />
<path d="M49830 37870
L49540 37870
" />
<path d="M49690 37870
L49690 37370
L49640 37440
L49590 37490
L49540 37510
" />
<path d="M50000 37870
L50260 37540
" />
<path d="M50000 37540
L50260 37870
" />
<path d="M50540 37370
L50590 37370
L50640 37400
L50660 37420
L50690 37470
L50710 37560
L50710 37680
L50690 37780
L50660 37820
L50640 37850
L50590 37870
L50540 37870
L50500 37850
L50470 37820
L50450 37780
L50420 37680
L50420 37560
L50450 37470
L50470 37420
L50500 37400
L50540 37370
" />
<path d="M50900 37420
L50920 37400
L50970 37370
L51090 37370
L51140 37400
L51160 37420
L51190 37470
L51190 37510
L51160 37590
L50880 37870
L51190 37870
" />
<path d="M51280 37920
L51660 37920
" />
<path d="M51780 37870
L51780 37370
L51950 37730
L52110 37370
L52110 37870
" />
<path d="M52570 37870
L52570 37610
L52540 37560
L52500 37540
L52400 37540
L52350 37560
" />
<path d="M52570 37850
L52520 37870
L52400 37870
L52350 37850
L52330 37800
L52330 37750
L52350 37700
L52400 37680
L52520 37680
L52570 37660
" />
<path d="M52880 37870
L52830 37850
L52810 37800
L52810 37370
" />
<path d="M53260 37850
L53210 37870
L53110 37870
L53070 37850
L53040 37800
L53040 37610
L53070 37560
L53110 37540
L53210 37540
L53260 37560
L53280 37610
L53280 37660
L53040 37700
" />
</g>
<g style="fill:#008400; fill-opacity:0.0; 
stroke:#008400; stroke-width:60; stroke-opacity:1; 
stroke-linecap:round; stroke-linejoin:round;">
<path d="M51000 38500
L54000 38500
" />
<path d="M54000 38500
L54000 37000
" />
<path d="M54000 37000
L55500 37000
" />
<path d="M58500 37000
L59500 37000
" />
<path d="M62500 37000
L63500 37000
" />
<path d="M66500 37000
L67000 37000
" />
<path d="M67000 37000
L67000 37500
" />
<path d="M67000 40500
L67000 41000
" />
<path d="M67000 41000
L54000 41000
" />
<path d="M54000 41000
L54000 39500
" />
<path d="M54000 39500
L51000 39500
" />
</g> 
</svg>
