<?xml version="1.0" standalone="no"?>
 <!DOCTYPE svg PUBLIC "-//W3C//DTD SVG 1.1//EN" 
 "http://www.w3.org/Graphics/SVG/1.1/DTD/svg11.dtd"> 
<svg xmlns="http://www.w3.org/2000/svg" version="1.1" 
    width="29.7002cm" height="21.0007cm" viewBox="0 0 116930 82680 ">
<title>SVG Picture created as 1206_led_satellite_board-rev_1.0-F.SilkS.svg date 2018/12/11 22:04:26 </title>
  <desc>Picture generated by PCBNEW </desc>
<g style="fill:#000000; fill-opacity:1;stroke:#000000; stroke-opacity:1;
stroke-linecap:round; stroke-linejoin:round; "
 transform="translate(0 0) scale(1 1)">
</g>
<g style="fill:#000000; fill-opacity:0.0; 
stroke:#000000; stroke-width:-0.000393701; stroke-opacity:1; 
stroke-linecap:round; stroke-linejoin:round;">
</g>
<g style="fill:#000000; fill-opacity:0.0; 
stroke:#000000; stroke-width:98.4252; stroke-opacity:1; 
stroke-linecap:round; stroke-linejoin:round;">
<path d="M14174 8150
L14174 7756
L14324 7756
L14362 7775
L14381 7794
L14399 7831
L14399 7888
L14381 7925
L14362 7944
L14324 7963
L14174 7963
" />
<path d="M14568 8150
L14568 7888
" />
<path d="M14568 7756
L14549 7775
L14568 7794
L14587 7775
L14568 7756
L14568 7794
" />
<path d="M14756 7888
L14756 8150
" />
<path d="M14756 7925
L14774 7906
L14812 7888
L14868 7888
L14906 7906
L14924 7944
L14924 8150
" />
<path d="M15243 7944
L15299 7963
L15318 7981
L15337 8019
L15337 8075
L15318 8113
L15299 8131
L15262 8150
L15112 8150
L15112 7756
L15243 7756
L15280 7775
L15299 7794
L15318 7831
L15318 7869
L15299 7906
L15280 7925
L15243 7944
L15112 7944
" />
<path d="M15674 7888
L15674 8150
" />
<path d="M15505 7888
L15505 8094
L15524 8131
L15562 8150
L15618 8150
L15655 8131
L15674 8113
" />
<path d="M15843 8131
L15880 8150
L15955 8150
L15993 8131
L16012 8094
L16012 8075
L15993 8038
L15955 8019
L15899 8019
L15862 8000
L15843 7963
L15843 7944
L15862 7906
L15899 7888
L15955 7888
L15993 7906
" />
<path d="M16668 8150
L16480 8150
L16480 7756
" />
<path d="M16799 7944
L16930 7944
" />
<path d="M16987 8150
L16799 8150
L16799 7756
L16987 7756
" />
<path d="M17155 8150
L17155 7756
L17249 7756
L17305 7775
L17343 7813
L17361 7850
L17380 7925
L17380 7981
L17361 8056
L17343 8094
L17305 8131
L17249 8150
L17155 8150
" />
<path d="M13068 8820
L13125 8839
L13218 8839
L13256 8820
L13274 8802
L13293 8764
L13293 8727
L13274 8689
L13256 8670
L13218 8652
L13143 8633
L13106 8614
L13087 8595
L13068 8558
L13068 8520
L13087 8483
L13106 8464
L13143 8445
L13237 8445
L13293 8464
" />
<path d="M13631 8839
L13631 8633
L13612 8595
L13574 8577
L13499 8577
L13462 8595
" />
<path d="M13631 8820
L13593 8839
L13499 8839
L13462 8820
L13443 8783
L13443 8745
L13462 8708
L13499 8689
L13593 8689
L13631 8670
" />
<path d="M13762 8577
L13912 8577
" />
<path d="M13818 8445
L13818 8783
L13837 8820
L13874 8839
L13912 8839
" />
<path d="M14193 8820
L14156 8839
L14081 8839
L14043 8820
L14024 8783
L14024 8633
L14043 8595
L14081 8577
L14156 8577
L14193 8595
L14212 8633
L14212 8670
L14024 8708
" />
<path d="M14437 8839
L14399 8820
L14381 8783
L14381 8445
" />
<path d="M14643 8839
L14606 8820
L14587 8783
L14587 8445
" />
<path d="M14793 8839
L14793 8577
" />
<path d="M14793 8445
L14774 8464
L14793 8483
L14812 8464
L14793 8445
L14793 8483
" />
<path d="M14924 8577
L15074 8577
" />
<path d="M14981 8445
L14981 8783
L14999 8820
L15037 8839
L15074 8839
" />
<path d="M15355 8820
L15318 8839
L15243 8839
L15205 8820
L15187 8783
L15187 8633
L15205 8595
L15243 8577
L15318 8577
L15355 8595
L15374 8633
L15374 8670
L15187 8708
" />
<path d="M15974 8633
L16030 8652
L16049 8670
L16068 8708
L16068 8764
L16049 8802
L16030 8820
L15993 8839
L15843 8839
L15843 8445
L15974 8445
L16012 8464
L16030 8483
L16049 8520
L16049 8558
L16030 8595
L16012 8614
L15974 8633
L15843 8633
" />
<path d="M16293 8839
L16255 8820
L16237 8802
L16218 8764
L16218 8652
L16237 8614
L16255 8595
L16293 8577
L16349 8577
L16387 8595
L16405 8614
L16424 8652
L16424 8764
L16405 8802
L16387 8820
L16349 8839
L16293 8839
" />
<path d="M16762 8839
L16762 8633
L16743 8595
L16705 8577
L16630 8577
L16593 8595
" />
<path d="M16762 8820
L16724 8839
L16630 8839
L16593 8820
L16574 8783
L16574 8745
L16593 8708
L16630 8689
L16724 8689
L16762 8670
" />
<path d="M16949 8839
L16949 8577
" />
<path d="M16949 8652
L16968 8614
L16987 8595
L17024 8577
L17062 8577
" />
<path d="M17361 8839
L17361 8445
" />
<path d="M17361 8820
L17324 8839
L17249 8839
L17211 8820
L17193 8802
L17174 8764
L17174 8652
L17193 8614
L17211 8595
L17249 8577
L17324 8577
L17361 8595
" />
<path d="M15318 9528
L15187 9341
" />
<path d="M15093 9528
L15093 9134
L15243 9134
L15280 9153
L15299 9172
L15318 9209
L15318 9266
L15299 9303
L15280 9322
L15243 9341
L15093 9341
" />
<path d="M15637 9509
L15599 9528
L15524 9528
L15487 9509
L15468 9472
L15468 9322
L15487 9284
L15524 9266
L15599 9266
L15637 9284
L15655 9322
L15655 9359
L15468 9397
" />
<path d="M15787 9266
L15880 9528
L15974 9266
" />
<path d="M16124 9491
L16143 9509
L16124 9528
L16105 9509
L16124 9491
L16124 9528
" />
<path d="M16818 9528
L16593 9528
" />
<path d="M16705 9528
L16705 9134
L16668 9191
L16630 9228
L16593 9247
" />
<path d="M16987 9491
L17005 9509
L16987 9528
L16968 9509
L16987 9491
L16987 9528
" />
<path d="M17249 9134
L17286 9134
L17324 9153
L17343 9172
L17361 9209
L17380 9284
L17380 9378
L17361 9453
L17343 9491
L17324 9509
L17286 9528
L17249 9528
L17211 9509
L17193 9491
L17174 9453
L17155 9378
L17155 9284
L17174 9209
L17193 9172
L17211 9153
L17249 9134
" />
</g>
<g style="fill:#000000; fill-opacity:0.0; 
stroke:#000000; stroke-width:118.11; stroke-opacity:1; 
stroke-linecap:round; stroke-linejoin:round;">
<path d="M12739 6200
L12682 6172
L12598 6172
L12514 6200
L12457 6257
L12429 6313
L12401 6425
L12401 6510
L12429 6622
L12457 6678
L12514 6735
L12598 6763
L12654 6763
L12739 6735
L12767 6706
L12767 6510
L12654 6510
" />
<path d="M13020 6763
L13020 6172
L13357 6763
L13357 6172
" />
<path d="M13638 6763
L13638 6172
L13779 6172
L13863 6200
L13920 6257
L13948 6313
L13976 6425
L13976 6510
L13948 6622
L13920 6678
L13863 6735
L13779 6763
L13638 6763
" />
<path d="M12373 9294
L12823 9294
" />
<path d="M12598 9519
L12598 9069
" />
</g>
<g style="fill:#000000; fill-opacity:0.0; 
stroke:#000000; stroke-width:47.2441; stroke-opacity:1; 
stroke-linecap:round; stroke-linejoin:round;">
<path d="M12082 6259
L11098 6259
" />
<path d="M12082 7244
L12082 6259
" />
<path d="M9917 9074
L9917 7874
" />
<path d="M11078 9074
L9917 9074
" />
<path d="M11078 9370
L11078 9074
" />
<path d="M9917 6673
L9917 7874
" />
<path d="M11078 6673
L9917 6673
" />
<path d="M11078 6377
L11078 6673
" />
<path d="M11964 9370
L11964 8661
" />
<path d="M11669 9370
L11964 9370
" />
<path d="M11669 8661
L11669 9370
" />
<path d="M11964 8661
L11669 8661
" />
<path d="M11964 7086
L11964 6377
" />
<path d="M11669 7086
L11964 7086
" />
<path d="M11669 6377
L11669 7086
" />
<path d="M11964 6377
L11669 6377
" />
<path d="M11964 8070
L11964 7677
" />
<path d="M11669 8070
L11964 8070
" />
<path d="M11669 7677
L11669 8070
" />
<path d="M11964 7677
L11669 7677
" />
<path d="M11964 9370
L11964 6377
" />
<path d="M9622 9370
L11964 9370
" />
<path d="M9622 6377
L9622 9370
" />
<path d="M11964 6377
L9622 6377
" />
</g>
<g style="fill:#000000; fill-opacity:0.0; 
stroke:#000000; stroke-width:59.0551; stroke-opacity:1; 
stroke-linecap:round; stroke-linejoin:round;">
<path d="M12162 8005
L12443 8005
L12499 8023
L12537 8061
L12556 8117
L12556 8155
" />
<path d="M12556 7611
L12556 7836
" />
<path d="M12556 7724
L12162 7724
L12218 7761
L12256 7799
L12274 7836
" />
</g> 
</svg>
